<!-- Generator: Adobe Illustrator 18.1.0, SVG Export Plug-In  -->
<svg version="1.1"
	 xmlns="http://www.w3.org/2000/svg" xmlns:xlink="http://www.w3.org/1999/xlink" xmlns:a="http://ns.adobe.com/AdobeSVGViewerExtensions/3.0/"
	 x="0px" y="0px" width="17.6px" height="17.6px" viewBox="0 0 17.6 17.6" enable-background="new 0 0 17.6 17.6"
	 xml:space="preserve">
<defs>
</defs>
<circle opacity="0.5" cx="8.8" cy="8.8" r="8.8"/>
<g>
	<path fill="#FFFFFF" d="M7,8L4.2,5.5C4,5.3,3.9,5.2,3.9,5.1C3.9,5,4,4.8,4.2,4.5c0.2-0.2,0.3-0.3,0.5-0.3c0,0,0.1,0,0.1,0
		C5,4.3,5.2,4.4,5.4,4.5l3.5,3.1l3.5-3.1c0.1-0.1,0.3-0.2,0.5-0.3c0,0,0.1,0,0.1,0c0.2,0,0.3,0.1,0.5,0.3c0.2,0.3,0.3,0.5,0.3,0.6
		c0,0.1-0.1,0.2-0.3,0.4C12.8,6,11.9,6.9,10.6,8c-0.4,0.4-0.6,0.7-0.5,1c0,0.3,0.3,0.7,0.8,1.1l2.6,2.1c0.2,0.2,0.2,0.3,0.2,0.4
		c0,0.1-0.1,0.3-0.3,0.5s-0.3,0.3-0.5,0.3c-0.1,0-0.3-0.1-0.5-0.2l-3.7-2.8l-3.7,2.8c-0.2,0.1-0.3,0.2-0.5,0.2
		c-0.1,0-0.3-0.1-0.5-0.3s-0.3-0.4-0.3-0.5c0-0.1,0.1-0.2,0.2-0.4l2.6-2.1c0.5-0.4,0.8-0.8,0.8-1.2C7.5,8.6,7.3,8.3,7,8z"/>
</g>
</svg>
