<?xml version="1.0" encoding="utf-8"?>
<!-- Generator: Adobe Illustrator 18.1.0, SVG Export Plug-In . SVG Version: 6.00 Build 0)  -->
<!DOCTYPE svg PUBLIC "-//W3C//DTD SVG 1.1//EN" "http://www.w3.org/Graphics/SVG/1.1/DTD/svg11.dtd">
<svg version="1.1" id="Capa_1" xmlns="http://www.w3.org/2000/svg" xmlns:xlink="http://www.w3.org/1999/xlink" x="0px" y="0px"
	 viewBox="-80 246.6 433.3 348.3" enable-background="new -80 246.6 433.3 348.3" xml:space="preserve">
<polygon fill="#EC1C24" stroke="#000000" stroke-width="0.5" stroke-miterlimit="10" points="256.3,444.8 224.6,468.5 -72,468.5 
	-72,341.9 -4.4,273.5 -3.7,273.5 -3.7,272.9 22,246.9 -3.7,246.9 -5,246.9 -30.4,246.9 -30.4,272.2 -79.7,321.6 -79.7,479.7 
	45.4,594.6 74.4,594.6 106,570.9 353,570.9 353,468.5 353,468.5 353,444.8 "/>
<g>
	<path fill="#FFFFFF" d="M70.2,526h24.6c0.9,0,1.3,0.6,1.3,1.8v3.6c0,1.2-0.4,1.8-1.3,1.8h-29c-0.3,0-0.7-0.1-1-0.4
		s-0.5-0.6-0.5-0.9v-28.6c0-0.9,0.5-1.3,1.4-1.3l29,0c0.9,0,1.3,0.6,1.3,1.8c0,1.1,0,2.2,0,3.3v3.3c0,0.9-0.3,1.3-1,1.3h-2
		c-0.7,0-1-0.4-1-1.3v-1.3h-22V526z"/>
	<path fill="#FFFFFF" d="M100.2,503.6c0-1.2,0.4-1.8,1.3-1.8h29c0.9,0,1.3,0.6,1.3,1.8V520c0,1.2-0.4,1.8-1.3,1.8h-22.8l23.6,6.8
		c0.7,0.2,1,0.5,1,1c0,0.1,0,0.2-0.1,0.3l-0.8,2.6c-0.1,0.5-0.5,0.7-0.9,0.7c-0.2,0-0.4,0-0.6-0.1l-24.1-6.9v5.7
		c0,0.9-0.5,1.3-1.4,1.3h-2.9c-1,0-1.4-0.4-1.4-1.3V503.6z M106,514.7h21.9V509H106V514.7z"/>
	<path fill="#FFFFFF" d="M142.7,514.9h24.6c0.9,0,1.3,0.6,1.3,1.8v3.6c0,1.2-0.4,1.8-1.3,1.8h-24.6v1.9v2h24.6
		c0.9,0,1.3,0.6,1.3,1.8v3.6c0,1.2-0.4,1.8-1.3,1.8h-29c-0.9,0-1.3-0.6-1.3-1.8v-27.5c0-1.2,0.4-1.8,1.3-1.8h29
		c0.9,0,1.3,0.6,1.3,1.8v3.6c0,1.2-0.4,1.8-1.3,1.8h-24.6V514.9z"/>
	<path fill="#FFFFFF" d="M206.6,501.9c0.7,0,1,0.4,1,1.3v18.1c0,1.1-0.4,2.1-1.1,2.9l-3.2,3.8c-1,1.2-2,2.4-3.2,3.8
		c-0.7,0.9-1.7,1.3-3,1.3H175c-1,0-1.4-0.4-1.4-1.3v-28.6c0-0.9,0.5-1.3,1.4-1.3L206.6,501.9z M179.3,509v17h17.6l6.7-7.8V509H179.3
		z"/>
	<path fill="#FFFFFF" d="M213.8,502h2.9c1,0,1.4,0.4,1.4,1.3v28.6c0,0.9-0.5,1.3-1.4,1.3h-2.9c-1,0-1.4-0.4-1.4-1.3v-28.6
		C212.4,502.4,212.9,502,213.8,502z"/>
	<path fill="#FFFFFF" d="M252.4,502c0.9,0,1.3,0.6,1.3,1.8v3.6c0,1.2-0.4,1.8-1.3,1.8h-12.5v22.7c0,0.9-0.3,1.3-1,1.3h-2
		c-0.7,0-1-0.4-1-1.3v-22.7h-12.5c-0.9,0-1.3-0.6-1.3-1.8v-3.6c0-1.2,0.4-1.8,1.3-1.8H252.4z"/>
	<path fill="#FFFFFF" d="M257.1,520.3v-16.9c0-0.9,0.5-1.3,1.4-1.3l28.9,0c0.9,0,1.3,0.6,1.3,1.8v6.6c0,0.9-0.3,1.3-1,1.3h-2
		c-0.7,0-1-0.4-1-1.3v-1.2h-21.9v5.7h24.6c0.9,0,1.3,0.6,1.3,1.8v14.7c0,1.2-0.4,1.8-1.3,1.8h-29c-0.9,0-1.3-0.6-1.3-1.8v-3.6
		c0-1.2,0.4-1.8,1.3-1.8h26.3v-3.9h-26.3C257.6,522.1,257.1,521.5,257.1,520.3z"/>
</g>
</svg>
