<!-- Generator: Adobe Illustrator 18.1.0, SVG Export Plug-In  -->
<svg version="1.1"
	 xmlns="http://www.w3.org/2000/svg" xmlns:xlink="http://www.w3.org/1999/xlink" xmlns:a="http://ns.adobe.com/AdobeSVGViewerExtensions/3.0/"
	 x="0px" y="0px" width="322.8px" height="74px" viewBox="0 0 322.8 74" enable-background="new 0 0 322.8 74" xml:space="preserve"
	>
<defs>
</defs>
<g>
	<path fill="#6EB4E4" d="M33.6,35.9h-4.3c-1.6,0-2.9-0.6-4.1-1.7c-1.1-1.1-1.7-2.5-1.7-4.1v-3.3c0-2.5,0.9-4.6,2.6-6.4
		c1.8-1.8,3.9-2.6,6.4-2.6H43v4.6H32.7c-1.2,0-2.1,0.4-2.8,1.3c-0.7,0.8-1,1.9-1,3.1v3.3c0,0.3,0.1,0.6,0.3,0.8
		c0.2,0.2,0.5,0.3,0.8,0.3h6v0h1.2c1.6,0,2.9,0.6,4.1,1.7c1.1,1.1,1.7,2.5,1.7,4.1c0,1.6-0.6,2.9-1.7,4.1c-1.1,1.1-2.5,1.7-4.1,1.7
		h-1.2v0h-6c-0.3,0-0.6,0.1-0.8,0.3c-0.2,0.2-0.3,0.5-0.3,0.8v3.3c0,1.3,0.3,2.3,1,3.1c0.7,0.9,1.7,1.3,2.8,1.3H43v4.6H32.7
		c-2.5,0-4.6-0.9-6.4-2.6c-1.8-1.8-2.6-3.9-2.6-6.4v-3.3c0-1.6,0.6-2.9,1.7-4.1c1.1-1.1,2.5-1.7,4.1-1.7h4.3v0h3.5
		c0.3,0,0.6-0.1,0.8-0.3c0.2-0.2,0.3-0.5,0.3-0.8c0-0.3-0.1-0.6-0.3-0.8c-0.2-0.2-0.5-0.3-0.8-0.3L33.6,35.9L33.6,35.9z"/>
	<path fill="#6EB4E4" d="M61.1,26.8c0-1.2-0.4-2.1-1.3-2.8c-0.8-0.7-1.9-1-3.1-1c-1.2,0-2.2,0.3-2.9,1c-0.7,0.7-1,1.6-1,2.8v29.3
		h-5.2V26.8c0-2.5,0.9-4.6,2.6-6.4c1.8-1.8,3.9-2.6,6.4-2.6c2.5,0,4.6,0.9,6.4,2.6c1.8,1.8,2.6,3.9,2.6,6.4v20.3
		c0,1.2,0.3,2.2,1,2.8c0.7,0.7,1.6,1,2.8,1s2.2-0.3,2.8-1c0.7-0.7,1-1.6,1-2.8V17.8h5.2v29.3c0,2.5-0.9,4.6-2.6,6.4
		c-1.8,1.8-3.9,2.7-6.4,2.7c-2.5,0-4.5-0.9-6.1-2.7c-1.6-1.7-2.4-3.9-2.4-6.4V26.8z"/>
	<path fill="#6EB4E4" d="M108.2,42.7c-1.6,0-2.9-0.6-4.1-1.7c-1.1-1.1-1.7-2.5-1.7-4.1c0-1.6,0.6-2.9,1.7-4.1
		c1.1-1.1,2.5-1.7,4.1-1.7h9.3v4.6h-9.3c-0.3,0-0.6,0.1-0.8,0.3c-0.2,0.2-0.3,0.5-0.3,0.8c0,0.3,0.1,0.6,0.3,0.8
		c0.2,0.2,0.5,0.3,0.8,0.3h13.5c-0.3,5-2.3,9.3-6,12.8c-3.7,3.5-8.1,5.3-13.2,5.3c-5.3,0-9.8-1.9-13.5-5.6
		c-3.8-3.8-5.6-8.3-5.6-13.6c0-5.3,1.9-9.8,5.6-13.5c3.7-3.7,8.2-5.6,13.5-5.7v4.6c-4,0-7.4,1.5-10.2,4.3c-2.8,2.8-4.2,6.3-4.2,10.2
		c0,4,1.4,7.5,4.3,10.3c2.8,2.8,6.3,4.3,10.3,4.3c3,0,5.7-0.8,8.1-2.5c2.4-1.6,4.1-3.7,5.3-6.4H108.2z"/>
	<path fill="#6EB4E4" d="M126.3,17.8h5.2v32.6c0,0.3,0.1,0.6,0.3,0.8c0.2,0.2,0.5,0.3,0.8,0.3h17.8v4.6h-18.4
		c-1.6,0-2.9-0.6-4.1-1.7c-1.1-1.1-1.7-2.5-1.7-4V17.8z"/>
	<path fill="#6EB4E4" d="M155.1,17.8h5.2v38.4h-5.2V17.8z"/>
	<path fill="#6EB4E4" d="M186.9,22.5h-11.1c-1.7,0-3.1,0.6-4.3,1.8c-1.2,1.2-1.8,2.6-1.8,4.3c0,1.7,0.6,3.1,1.8,4.3
		c1.2,1.2,2.6,1.8,4.3,1.8h4.6c3,0,5.5,1.1,7.6,3.2c2.1,2.1,3.1,4.6,3.1,7.6c0,3-1,5.5-3.1,7.6c-2.1,2.1-4.6,3.2-7.6,3.2h-13.7v-4.7
		h13.7c1.7,0,3.1-0.6,4.3-1.8c1.2-1.2,1.8-2.6,1.8-4.3s-0.6-3.1-1.8-4.3c-1.2-1.2-2.6-1.8-4.3-1.8h-4.6c-3,0-5.5-1-7.6-3.1
		c-2.1-2.1-3.2-4.6-3.2-7.6c0-3,1.1-5.5,3.2-7.6c2.1-2.1,4.6-3.2,7.6-3.2h11.1V22.5z"/>
	<path fill="#6EB4E4" d="M195.8,17.8h5.2v38.4h-5.2V17.8z M215.2,17.8h5.2v18.1h-11.9c-0.3,0-0.6,0.1-0.8,0.3
		c-0.2,0.2-0.3,0.5-0.3,0.8c0,0.3,0.1,0.6,0.3,0.8c0.2,0.2,0.5,0.3,0.8,0.3h11.9v18.1h-5.2V42.7h-6.7c-1.6,0-2.9-0.6-4.1-1.7
		c-1.1-1.1-1.7-2.5-1.7-4.1c0-1.6,0.6-2.9,1.7-4.1c1.1-1.1,2.5-1.7,4.1-1.7h6.7V17.8z"/>
</g>
<path fill="#6EB4E4" d="M309.3,74H13.5C6.1,74,0,68,0,60.5v-47C0,6.1,6.1,0,13.5,0h295.8c7.4,0,13.5,6.1,13.5,13.5v47
	C322.8,68,316.7,74,309.3,74z M13.5,3C7.7,3,3,7.7,3,13.5v47C3,66.3,7.7,71,13.5,71h295.8c5.8,0,10.5-4.7,10.5-10.5v-47
	c0-5.8-4.7-10.5-10.5-10.5H13.5z"/>
</svg>
