<!-- Generator: Adobe Illustrator 18.1.0, SVG Export Plug-In  -->
<svg version="1.1"
	 xmlns="http://www.w3.org/2000/svg" xmlns:xlink="http://www.w3.org/1999/xlink" xmlns:a="http://ns.adobe.com/AdobeSVGViewerExtensions/3.0/"
	 x="0px" y="0px" width="322.8px" height="74px" viewBox="0 0 322.8 74" enable-background="new 0 0 322.8 74" xml:space="preserve"
	>
<defs>
</defs>
<g>
	<path fill="#E989B7" d="M33.6,39h-4.3c-1.6,0-2.9-0.6-4.1-1.7c-1.1-1.1-1.7-2.5-1.7-4.1v-3.3c0-2.5,0.9-4.6,2.6-6.4
		c1.8-1.8,3.9-2.6,6.4-2.6H43v4.6H32.7c-1.2,0-2.1,0.4-2.8,1.3c-0.7,0.8-1,1.9-1,3.1v3.3c0,0.3,0.1,0.6,0.3,0.8
		c0.2,0.2,0.5,0.3,0.8,0.3h6v0h1.2c1.6,0,2.9,0.6,4.1,1.7c1.1,1.1,1.7,2.5,1.7,4.1c0,1.6-0.6,2.9-1.7,4.1c-1.1,1.1-2.5,1.7-4.1,1.7
		h-1.2v0h-6c-0.3,0-0.6,0.1-0.8,0.3c-0.2,0.2-0.3,0.5-0.3,0.8v3.3c0,1.3,0.3,2.3,1,3.1c0.7,0.9,1.7,1.3,2.8,1.3H43v4.6H32.7
		c-2.5,0-4.6-0.9-6.4-2.6c-1.8-1.8-2.6-3.9-2.6-6.4V47c0-1.6,0.6-2.9,1.7-4.1c1.1-1.1,2.5-1.7,4.1-1.7h4.3v0h3.5
		c0.3,0,0.6-0.1,0.8-0.3c0.2-0.2,0.3-0.5,0.3-0.8c0-0.3-0.1-0.6-0.3-0.8c-0.2-0.2-0.5-0.3-0.8-0.3L33.6,39L33.6,39z"/>
	<path fill="#E989B7" d="M69.5,25.6H58.4c-1.7,0-3.1,0.6-4.3,1.8c-1.2,1.2-1.8,2.6-1.8,4.3c0,1.7,0.6,3.1,1.8,4.3
		c1.2,1.2,2.6,1.8,4.3,1.8H63c3,0,5.5,1.1,7.6,3.2c2.1,2.1,3.1,4.6,3.1,7.6c0,3-1,5.5-3.1,7.6c-2.1,2.1-4.6,3.2-7.6,3.2H49.4v-4.7
		H63c1.7,0,3.1-0.6,4.3-1.8c1.2-1.2,1.8-2.6,1.8-4.3s-0.6-3.1-1.8-4.3c-1.2-1.2-2.6-1.8-4.3-1.8h-4.6c-3,0-5.5-1-7.6-3.1
		c-2.1-2.1-3.2-4.6-3.2-7.6c0-3,1.1-5.5,3.2-7.6c2.1-2.1,4.6-3.2,7.6-3.2h11.1V25.6z"/>
	<path fill="#E989B7" d="M92.6,20.9c3.2,0,5.9,1.1,8.2,3.4c2.3,2.3,3.4,5,3.4,8.2c0,3.2-1.1,5.9-3.4,8.2c-2.3,2.3-5,3.4-8.2,3.4
		h-7.4v-4.6h7.4c1.9,0,3.6-0.7,4.9-2c1.4-1.4,2-3,2-4.9s-0.7-3.6-2-4.9c-1.4-1.4-3-2-4.9-2h-5.1c-1.2,0-2.1,0.4-2.9,1.3
		c-0.7,0.8-1,1.9-1,3.1v29.3h-5.2V29.9c0-2.5,0.9-4.6,2.6-6.4c1.8-1.8,3.9-2.6,6.4-2.6H92.6z"/>
	<path fill="#E989B7" d="M121.6,45.8c-1.6,0-2.9-0.6-4.1-1.7c-1.1-1.1-1.7-2.5-1.7-4.1c0-1.6,0.6-2.9,1.7-4.1
		c1.1-1.1,2.5-1.7,4.1-1.7h10.6v-4.4c0-1.3-0.3-2.3-1-3.1c-0.7-0.9-1.7-1.3-2.8-1.3H118c-1.2,0-2.1,0.4-2.9,1.3
		c-0.7,0.8-1,1.9-1,3.1v29.3H109V29.9c0-2.5,0.9-4.6,2.6-6.4c1.8-1.8,3.9-2.6,6.4-2.6h10.3c2.5,0,4.6,0.9,6.4,2.6
		c1.8,1.8,2.7,3.9,2.7,6.4v9h-15.8c-0.3,0-0.6,0.1-0.8,0.3c-0.2,0.2-0.3,0.5-0.3,0.8c0,0.3,0.1,0.6,0.3,0.8c0.2,0.2,0.5,0.3,0.8,0.3
		h15.8v18.1h-5.2V45.8H121.6z"/>
	<path fill="#E989B7" d="M155.5,29.9c0-1.2-0.4-2.1-1.3-2.8c-0.8-0.7-1.9-1-3.1-1c-1.2,0-2.2,0.3-2.9,1c-0.7,0.7-1,1.6-1,2.8v29.3
		h-5.2V29.9c0-2.5,0.9-4.6,2.6-6.4c1.8-1.8,3.9-2.6,6.4-2.6c2.5,0,4.6,0.9,6.4,2.6c1.8,1.8,2.6,3.9,2.6,6.4v20.3
		c0,1.2,0.3,2.2,1,2.8c0.7,0.7,1.6,1,2.8,1s2.2-0.3,2.8-1c0.7-0.7,1-1.6,1-2.8V20.9h5.2v29.3c0,2.5-0.9,4.6-2.6,6.4
		c-1.8,1.8-3.9,2.7-6.4,2.7c-2.5,0-4.5-0.9-6.1-2.7c-1.6-1.7-2.4-3.9-2.4-6.4V29.9z M165,13.7c0,1.2-0.3,2.3-0.9,3.2
		c-0.6,0.9-1.5,1.6-2.5,1.9c-0.9,0.3-2.6,0-5.2-1c-0.8-0.3-1.5-0.3-2-0.2c-0.6,0.2-1.1,0.6-1.4,1.3H150c0.3-1.1,0.8-2.1,1.5-3
		c0.8-1,1.7-1.7,2.8-1.9c0.5-0.1,1.3,0,2.3,0.4c0.3,0.1,1.1,0.4,2.4,0.7c0.9,0.2,1.6,0.3,2,0.1c0.6-0.2,0.9-0.7,1-1.5H165z"/>
	<path fill="#E989B7" d="M210.4,26.5c3.8,3.8,5.6,8.3,5.6,13.6c0,5.3-1.9,9.8-5.6,13.6c-3.7,3.8-8.3,5.6-13.6,5.6
		c-5.3,0-9.8-1.9-13.5-5.6c-3.8-3.7-5.6-8.3-5.6-13.6c0-5.3,1.9-9.8,5.6-13.6c3.7-3.7,8.3-5.6,13.5-5.6
		C202.2,20.9,206.7,22.8,210.4,26.5z M196.9,25.5c-4,0-7.5,1.4-10.3,4.3c-2.8,2.8-4.3,6.3-4.3,10.3c0,4,1.4,7.5,4.3,10.3
		c2.8,2.8,6.3,4.3,10.3,4.3c4,0,7.5-1.4,10.3-4.3c2.8-2.9,4.3-6.3,4.3-10.3c0-4-1.4-7.4-4.3-10.3S200.9,25.5,196.9,25.5z"/>
	<path fill="#E989B7" d="M220.8,20.9h5.2v32.6c0,0.3,0.1,0.6,0.3,0.8c0.2,0.2,0.5,0.3,0.8,0.3h17.8v4.6h-18.4
		c-1.6,0-2.9-0.6-4.1-1.7c-1.1-1.1-1.7-2.5-1.7-4V20.9z"/>
</g>
<path fill="none" stroke="#E989B7" stroke-width="3" stroke-miterlimit="10" d="M309.3,72.5H13.5c-6.6,0-12-5.4-12-12v-47
	c0-6.6,5.4-12,12-12h295.8c6.6,0,12,5.4,12,12v47C321.3,67.1,315.9,72.5,309.3,72.5z"/>
</svg>
