<?xml version="1.0" encoding="utf-8"?>
<!-- Generator: Adobe Illustrator 18.1.0, SVG Export Plug-In . SVG Version: 6.00 Build 0)  -->
<!DOCTYPE svg PUBLIC "-//W3C//DTD SVG 1.1//EN" "http://www.w3.org/Graphics/SVG/1.1/DTD/svg11.dtd">
<svg version="1.1" id="Capa_1" xmlns="http://www.w3.org/2000/svg" xmlns:xlink="http://www.w3.org/1999/xlink" x="0px" y="0px"
	 viewBox="-257 380.9 80 80" enable-background="new -257 380.9 80 80" xml:space="preserve">
<g>
	<g>
		<path d="M-247.2,460.9h60.5c5.4,0,9.8-4.4,9.8-9.8v-60.4c-0.1-5.4-4.5-9.8-9.8-9.8h-60.5c-5.4,0-9.8,4.4-9.8,9.8v60.5
			C-257,456.5-252.6,460.9-247.2,460.9z"/>
		<path fill="#FFFFFF" d="M-186.7,383.9c3.7,0,6.7,3.1,6.8,6.8v60.4c0,3.7-3.1,6.8-6.8,6.8h-60.5c-3.7,0-6.8-3-6.8-6.7v-60.5
			c0-3.7,3.1-6.8,6.8-6.8H-186.7 M-186.7,380.9h-60.5c-5.4,0-9.8,4.4-9.8,9.8v60.5c0,5.3,4.4,9.7,9.8,9.7h60.5
			c5.4,0,9.8-4.4,9.8-9.8v-60.4C-177,385.3-181.4,380.9-186.7,380.9L-186.7,380.9z"/>
	</g>
	<rect x="-244.5" y="395.6" fill="#FFFFFF" width="55" height="7"/>
	<rect x="-244.5" y="415.6" fill="#FFFFFF" width="55" height="7"/>
	<rect x="-244.5" y="435.1" fill="#FFFFFF" width="55" height="7"/>
</g>
</svg>
