<!-- Generator: Adobe Illustrator 18.1.0, SVG Export Plug-In  -->
<svg version="1.1"
	 xmlns="http://www.w3.org/2000/svg" xmlns:xlink="http://www.w3.org/1999/xlink" xmlns:a="http://ns.adobe.com/AdobeSVGViewerExtensions/3.0/"
	 x="0px" y="0px" width="231.9px" height="64.7px" viewBox="0 0 231.9 64.7" enable-background="new 0 0 231.9 64.7"
	 xml:space="preserve">
<defs>
</defs>
<path id="Facebook_1_" fill="#FFFFFF" d="M6.9,13.6c0,1.7,0,9.4,0,9.4H0v11.5h6.9v27.2h14.2V34.5h9.5c0,0,0.9-5.5,1.3-11.6
	c-1.2,0-10.8,0-10.8,0s0-6.7,0-7.9c0-1.2,1.5-2.8,3.1-2.8c1.5,0,4.7,0,7.7,0c0-1.6,0-7,0-12c-4,0-8.5,0-10.5,0
	C6.5,0.3,6.9,11.9,6.9,13.6z"/>
<path id="Twitter__x28_alt_x29__1_" fill="#FFFFFF" d="M137.6,26.2c3.8-0.3,6.4-2,7.3-4.4c-1.4,0.8-5.6,1.8-7.9,0.9
	c-0.1-0.6-0.2-1.1-0.4-1.5c-1.8-6.6-7.9-11.8-14.3-11.2c0.5-0.2,1-0.4,1.6-0.6c0.7-0.3,4.8-0.9,4.2-2.4c-0.6-1.3-5.6,1-6.6,1.3
	c1.3-0.5,3.3-1.3,3.6-2.7c-1.9,0.3-3.8,1.2-5.3,2.5c0.5-0.6,0.9-1.3,1-2c-5.1,3.3-8.1,9.9-10.6,16.3c-1.9-1.8-3.6-3.3-5.1-4.1
	c-4.2-2.3-9.3-4.7-17.3-7.6c-0.2,2.6,1.3,6.1,5.8,8.5c-1-0.1-2.7,0.2-4.2,0.5c0.6,3,2.5,5.5,7.6,6.7c-2.3,0.2-3.5,0.7-4.6,1.8
	c1.1,2.1,3.6,4.6,8.3,4.1c-5.2,2.2-2.1,6.4,2.1,5.7c-7.2,7.4-18.5,6.9-25,0.7c17,23.1,53.9,13.7,59.4-8.6c4.1,0,6.5-1.4,8-3
	C142.8,27.4,139.4,27,137.6,26.2z"/>
<path id="YouTube_1_" fill="#FFFFFF" d="M223.6,47.3H220l0-2.1c0-0.9,0.8-1.7,1.7-1.7h0.2c0.9,0,1.7,0.8,1.7,1.7L223.6,47.3z
	 M210.3,42.9c-0.9,0-1.6,0.6-1.6,1.3v10c0,0.7,0.7,1.3,1.6,1.3c0.9,0,1.6-0.6,1.6-1.3v-10C211.9,43.5,211.2,42.9,210.3,42.9z
	 M231.9,37.3v19.1c0,4.6-4,8.3-8.8,8.3h-36.3c-4.9,0-8.8-3.7-8.8-8.3V37.3c0-4.6,4-8.3,8.8-8.3h36.3C227.9,29,231.9,32.7,231.9,37.3
	z M189.2,58.5l0-20.1l4.5,0v-3l-12,0v2.9l3.7,0v20.2H189.2z M202.7,41.4h-3.8v10.7c0,1.6,0.1,2.3,0,2.6c-0.3,0.8-1.7,1.7-2.2,0.1
	c-0.1-0.3,0-1.1,0-2.6l0-10.8H193l0,10.6c0,1.6,0,2.8,0,3.4c0.1,1,0.1,2.1,1,2.8c1.7,1.2,4.9-0.2,5.7-1.9l0,2.2l3,0V41.4z
	 M214.7,53.7l0-8.9c0-3.4-2.6-5.4-6-2.7l0-6.6l-3.7,0l0,22.9l3.1,0l0.3-1.4C212.2,60.5,214.7,58,214.7,53.7z M226.4,52.5l-2.8,0
	c0,0.1,0,0.2,0,0.4v1.6c0,0.8-0.7,1.5-1.5,1.5h-0.6c-0.8,0-1.5-0.7-1.5-1.5v-0.2v-1.7v-2.2h6.4v-2.4c0-1.8,0-3.5-0.2-4.6
	c-0.5-3.2-5-3.7-7.2-2.1c-0.7,0.5-1.3,1.2-1.6,2.1c-0.3,0.9-0.5,2.2-0.5,3.8v5.3C217,61.3,227.7,60.1,226.4,52.5z M212,23.5
	c0.2,0.5,0.5,0.9,0.9,1.1c0.4,0.3,0.9,0.4,1.5,0.4c0.5,0,1-0.1,1.4-0.4c0.4-0.3,0.8-0.7,1.1-1.3l-0.1,1.5h4.2V7h-3.3v13.8
	c0,0.7-0.6,1.4-1.4,1.4c-0.8,0-1.4-0.6-1.4-1.4V7h-3.4v12c0,1.5,0,2.5,0.1,3.1C211.7,22.6,211.8,23.1,212,23.5z M199.3,13.5
	c0-1.7,0.1-3,0.4-4c0.3-1,0.8-1.7,1.5-2.3c0.7-0.6,1.7-0.9,2.8-0.9c1,0,1.8,0.2,2.5,0.6c0.7,0.4,1.2,0.9,1.6,1.5
	c0.4,0.6,0.6,1.2,0.8,1.9c0.1,0.6,0.2,1.6,0.2,2.9v4.5c0,1.6-0.1,2.9-0.2,3.6c-0.1,0.8-0.4,1.5-0.8,2.2c-0.4,0.7-1,1.2-1.6,1.5
	c-0.7,0.3-1.4,0.5-2.3,0.5c-1,0-1.8-0.1-2.4-0.4c-0.7-0.3-1.2-0.7-1.5-1.2c-0.4-0.5-0.6-1.2-0.8-2c-0.2-0.8-0.2-1.9-0.2-3.5V13.5z
	 M202.6,20.6c0,1,0.8,1.8,1.7,1.8c0.9,0,1.7-0.8,1.7-1.8v-9.5c0-1-0.7-1.8-1.7-1.8c-0.9,0-1.7,0.8-1.7,1.8V20.6z M191,25.3h3.9
	l0-13.6L199.7,0h-4.3l-2.5,8.7L190.3,0h-4.3l5,11.7L191,25.3z"/>
</svg>
