<?xml version="1.0" encoding="utf-8"?>
<!-- Generator: Adobe Illustrator 18.1.0, SVG Export Plug-In . SVG Version: 6.00 Build 0)  -->
<!DOCTYPE svg PUBLIC "-//W3C//DTD SVG 1.1//EN" "http://www.w3.org/Graphics/SVG/1.1/DTD/svg11.dtd">
<svg version="1.1" id="Capa_1" xmlns="http://www.w3.org/2000/svg" xmlns:xlink="http://www.w3.org/1999/xlink" x="0px" y="0px"
	 viewBox="0 401 595.3 389.7" enable-background="new 0 401 595.3 389.7" xml:space="preserve">
<g>
	<path fill="#00FFFF" d="M588.1,404.2l4.1,4.1v375.2l-4.1,4.1H7.3l-4.1-4.1V408.2l4.1-4.1L588.1,404.2 M589.4,401H6l-5.9,5.9v377.8
		l5.9,5.9h583.4l5.9-5.9V406.9L589.4,401L589.4,401z"/>
</g>
<path fill="none" stroke="#FF00FF" stroke-width="2" stroke-miterlimit="10" d="M21.8,427.8h61.6c4.8,0,8.7,3.9,8.7,8.7v77.4
	c0,4.8-3.9,8.7-8.7,8.7H21.8c-4.8,0-8.7-3.9-8.7-8.7v-77.4C13.1,431.7,17,427.8,21.8,427.8z"/>
<path fill="none" stroke="#FF00FF" stroke-width="2" stroke-miterlimit="10" d="M21.8,534.4h61.6c4.8,0,8.7,4.4,8.7,9.8v87.3
	c0,5.4-3.9,9.8-8.7,9.8H21.8c-4.8,0-8.7-4.4-8.7-9.8v-87.3C13.1,538.7,17,534.4,21.8,534.4z"/>
<path fill="none" stroke="#FBB03B" stroke-width="2" stroke-miterlimit="10" d="M106.5,427.8h467c4.8,0,8.7,3.9,8.7,8.7v77.4
	c0,4.8-3.9,8.7-8.7,8.7h-467c-4.8,0-8.7-3.9-8.7-8.7v-77.4C97.8,431.7,101.7,427.8,106.5,427.8z"/>
<path fill="none" stroke="#FBB03B" stroke-width="2" stroke-miterlimit="10" d="M106.5,570.3h467c4.8,0,8.7,3.9,8.7,8.7v16.2
	c0,4.8-3.9,8.7-8.7,8.7h-467c-4.8,0-8.7-3.9-8.7-8.7v-16.2C97.8,574.2,101.7,570.3,106.5,570.3z"/>
<path fill="none" stroke="#FBB03B" stroke-width="2" stroke-miterlimit="10" d="M136.3,689.1h437.2c4.8,0,8.7,3.9,8.7,8.7V714
	c0,4.8-3.9,8.7-8.7,8.7H136.3c-4.8,0-8.7-3.9-8.7-8.7v-16.2C127.6,693,131.5,689.1,136.3,689.1z"/>
<g>
	<g>
		<path d="M28.1,506.8c-4.8,0-8.6-3.8-8.6-8.6v-47.9c0-4.8,3.8-8.6,8.6-8.6H76c4.8,0,8.6,3.8,8.6,8.6v47.9c0,4.8-3.8,8.6-8.6,8.6
			H28.1z"/>
		<path fill="#FFFFFF" d="M76,442.6c4.3,0,7.8,3.5,7.8,7.8v47.9c0,4.3-3.5,7.8-7.8,7.8H28.1c-4.3,0-7.8-3.5-7.8-7.8v-47.9
			c0-4.3,3.5-7.8,7.8-7.8H76 M76,441H28.1c-5.1,0-9.3,4.2-9.3,9.3v47.9c0,5.1,4.2,9.3,9.3,9.3H76c5.1,0,9.3-4.2,9.3-9.3v-47.9
			C85.4,445.2,81.2,441,76,441L76,441z"/>
	</g>
	<rect x="30.2" y="454.3" fill="#FFFFFF" width="43.6" height="5.5"/>
	<rect x="30.2" y="470.2" fill="#FFFFFF" width="43.6" height="5.5"/>
	<rect x="30.2" y="485.6" fill="#FFFFFF" width="43.6" height="5.5"/>
</g>
<g>
	<path fill="#CCCCCC" d="M111.6,444.4h-3.2v-1.2h7.9v1.2H113v9.5h-1.4L111.6,444.4L111.6,444.4z"/>
	<path fill="#CCCCCC" d="M117.3,442.7h1.4v4.8l0,0c0.2-0.4,0.6-0.7,1-1c0.4-0.2,0.9-0.4,1.4-0.4c1,0,2.7,0.6,2.7,3.2v4.6h-1.4v-4.4
		c0-1.3-0.5-2.3-1.7-2.3c-0.9,0-1.6,0.6-1.9,1.4c-0.1,0.2-0.1,0.4-0.1,0.6v4.6h-1.4V442.7z"/>
	<path fill="#CCCCCC" d="M127.6,444.1c0,0.5-0.3,0.9-0.9,0.9c-0.5,0-0.9-0.4-0.9-0.9c0-0.5,0.4-0.9,0.9-0.9
		C127.3,443.2,127.6,443.5,127.6,444.1z M126.1,453.9v-7.7h1.4v7.7H126.1z"/>
	<path fill="#CCCCCC" d="M129.6,452.5c0.4,0.2,1.1,0.6,1.8,0.6c1,0,1.5-0.5,1.5-1.1s-0.4-1-1.4-1.4c-1.3-0.5-2.1-1.3-2.1-2.1
		c0-1.3,1-2.2,2.6-2.2c0.8,0,1.4,0.2,1.9,0.5l-0.3,1c-0.3-0.2-0.9-0.5-1.6-0.5c-0.8,0-1.3,0.5-1.3,1c0,0.6,0.5,1,1.4,1.3
		c1.3,0.5,2,1.2,2,2.3c0,1.3-1,2.3-2.9,2.3c-0.9,0-1.6-0.2-2.1-0.6L129.6,452.5z"/>
	<path fill="#CCCCCC" d="M141,444.1c0,0.5-0.3,0.9-0.9,0.9c-0.5,0-0.9-0.4-0.9-0.9c0-0.5,0.4-0.9,0.9-0.9S141,443.5,141,444.1z
		 M139.4,453.9v-7.7h1.4v7.7H139.4z"/>
	<path fill="#CCCCCC" d="M148.6,453.6c-0.4,0.2-1.2,0.5-2.2,0.5c-2.3,0-3.8-1.6-3.8-3.9c0-2.4,1.6-4,4.1-4c0.8,0,1.6,0.2,1.9,0.4
		l-0.3,1.1c-0.3-0.2-0.9-0.4-1.6-0.4c-1.7,0-2.7,1.3-2.7,2.9c0,1.7,1.1,2.9,2.7,2.9c0.8,0,1.3-0.2,1.7-0.4L148.6,453.6z"/>
	<path fill="#CCCCCC" d="M157,450c0,2.9-2,4-3.8,4c-2.1,0-3.6-1.5-3.6-4c0-2.5,1.7-4,3.8-4C155.5,446.1,157,447.7,157,450z
		 M150.9,450c0,1.7,1,2.9,2.3,2.9c1.3,0,2.3-1.3,2.3-3c0-1.3-0.6-2.9-2.3-2.9C151.7,447.1,150.9,448.6,150.9,450z"/>
	<path fill="#CCCCCC" d="M158.8,448.3c0-0.8,0-1.4-0.1-2.1h1.3l0.1,1.3l0,0c0.4-0.7,1.3-1.4,2.5-1.4c1,0,2.7,0.6,2.7,3.2v4.6h-1.4
		v-4.4c0-1.3-0.5-2.3-1.7-2.3c-1,0-1.7,0.6-1.9,1.4c-0.1,0.2-0.1,0.4-0.1,0.6v4.6h-1.4L158.8,448.3L158.8,448.3L158.8,448.3z"/>
	<path fill="#CCCCCC" d="M171.5,446.2l1,3.9c0.2,0.9,0.4,1.7,0.6,2.5h0.1c0.2-0.8,0.4-1.6,0.7-2.5l1.3-3.9h1.2l1.2,3.8
		c0.3,1,0.5,1.7,0.7,2.5h0.1c0.2-0.8,0.3-1.6,0.6-2.5l1.1-3.9h1.3l-2.5,7.7h-1.3l-1.2-3.6c-0.2-0.9-0.5-1.6-0.7-2.5l0,0
		c-0.2,1-0.4,1.7-0.7,2.5l-1.3,3.6h-1.3l-2.3-7.7H171.5z"/>
	<path fill="#CCCCCC" d="M184.1,444.1c0,0.5-0.3,0.9-0.9,0.9c-0.5,0-0.9-0.4-0.9-0.9c0-0.5,0.4-0.9,0.9-0.9
		C183.8,443.2,184.1,443.5,184.1,444.1z M182.6,453.9v-7.7h1.4v7.7H182.6z"/>
	<path fill="#CCCCCC" d="M186.3,442.7h1.4v11.2h-1.4V442.7z"/>
	<path fill="#CCCCCC" d="M190.1,442.7h1.4v11.2h-1.4V442.7z"/>
	<path fill="#CCCCCC" d="M201.4,453.9l-0.1-1h-0.1c-0.4,0.6-1.3,1.1-2.4,1.1c-1.6,0-2.4-1.1-2.4-2.2c0-1.8,1.7-2.9,4.6-2.9v-0.2
		c0-0.6-0.2-1.7-1.7-1.7c-0.7,0-1.4,0.2-2,0.6l-0.3-1c0.6-0.4,1.6-0.7,2.5-0.7c2.4,0,2.9,1.6,2.9,3.2v2.9c0,0.6,0,1.3,0.2,1.8
		L201.4,453.9L201.4,453.9z M201.2,450c-1.5,0-3.2,0.2-3.2,1.7c0,0.9,0.6,1.3,1.3,1.3c1,0,1.7-0.6,1.8-1.3c0.1-0.2,0.1-0.3,0.1-0.5
		V450z"/>
	<path fill="#CCCCCC" d="M204.8,448.7c0-1,0-1.7-0.1-2.5h1.3l0.1,1.3l0,0c0.6-1,1.5-1.5,2.7-1.5c1.8,0,3.2,1.6,3.2,3.9
		c0,2.8-1.7,4.1-3.5,4.1c-1,0-1.9-0.5-2.4-1.2l0,0v4.2h-1.3V448.7z M206.1,450.7c0,0.2,0,0.4,0.1,0.6c0.2,1,1.1,1.7,2.1,1.7
		c1.5,0,2.3-1.2,2.3-2.9c0-1.5-0.8-2.9-2.3-2.9c-1,0-1.8,0.7-2.1,1.7c-0.1,0.2-0.1,0.4-0.1,0.6L206.1,450.7L206.1,450.7z"/>
	<path fill="#CCCCCC" d="M213.7,448.7c0-1,0-1.7-0.1-2.5h1.3l0.1,1.3l0,0c0.6-1,1.5-1.5,2.7-1.5c1.8,0,3.2,1.6,3.2,3.9
		c0,2.8-1.7,4.1-3.5,4.1c-1,0-1.9-0.5-2.4-1.2l0,0v4.2h-1.3V448.7z M215.2,450.7c0,0.2,0,0.4,0.1,0.6c0.2,1,1.1,1.7,2.1,1.7
		c1.5,0,2.3-1.2,2.3-2.9c0-1.5-0.8-2.9-2.3-2.9c-1,0-1.8,0.7-2.1,1.7c-0.1,0.2-0.1,0.4-0.1,0.6L215.2,450.7L215.2,450.7z"/>
	<path fill="#CCCCCC" d="M223.6,450.3c0,1.9,1.3,2.7,2.6,2.7c1,0,1.6-0.2,2.1-0.4l0.2,1c-0.5,0.2-1.3,0.5-2.5,0.5
		c-2.4,0-3.8-1.6-3.8-3.9s1.3-4.1,3.6-4.1c2.5,0,3.2,2.2,3.2,3.6c0,0.3,0,0.5-0.1,0.6L223.6,450.3L223.6,450.3L223.6,450.3z
		 M227.7,449.3c0-0.9-0.4-2.3-1.9-2.3c-1.4,0-2.1,1.3-2.1,2.3H227.7z"/>
	<path fill="#CCCCCC" d="M235,453.9l-0.1-1h-0.1c-0.4,0.6-1.3,1.1-2.4,1.1c-1.6,0-2.4-1.1-2.4-2.2c0-1.8,1.7-2.9,4.6-2.9v-0.2
		c0-0.6-0.2-1.7-1.7-1.7c-0.7,0-1.4,0.2-2,0.6l-0.3-1c0.6-0.4,1.6-0.7,2.5-0.7c2.4,0,2.9,1.6,2.9,3.2v2.9c0,0.6,0,1.3,0.2,1.8
		L235,453.9L235,453.9z M234.7,450c-1.5,0-3.2,0.2-3.2,1.7c0,0.9,0.6,1.3,1.3,1.3c1,0,1.7-0.6,1.8-1.3c0.1-0.2,0.1-0.3,0.1-0.5V450z
		"/>
	<path fill="#CCCCCC" d="M238.4,448.6c0-0.9,0-1.7-0.1-2.4h1.2l0.1,1.5h0.1c0.3-1,1.2-1.7,2.1-1.7c0.2,0,0.2,0,0.4,0.1v1.3
		c-0.2,0-0.3-0.1-0.5-0.1c-1,0-1.7,0.7-1.9,1.8c0,0.2-0.1,0.4-0.1,0.6v4.1h-1.3V448.6z"/>
	<path fill="#CCCCCC" d="M248.4,444.1c0,0.5-0.3,0.9-0.9,0.9c-0.5,0-0.9-0.4-0.9-0.9c0-0.5,0.4-0.9,0.9-0.9
		C248.1,443.2,248.4,443.5,248.4,444.1z M246.9,453.9v-7.7h1.4v7.7H246.9z"/>
	<path fill="#CCCCCC" d="M250.6,448.3c0-0.8,0-1.4-0.1-2.1h1.3l0.1,1.3l0,0c0.4-0.7,1.3-1.4,2.5-1.4c1,0,2.7,0.6,2.7,3.2v4.6h-1.4
		v-4.4c0-1.3-0.5-2.3-1.7-2.3c-1,0-1.7,0.6-1.9,1.4c-0.1,0.2-0.1,0.4-0.1,0.6v4.6h-1.4L250.6,448.3L250.6,448.3z"/>
	<path fill="#CCCCCC" d="M264.4,444v2.2h2v1h-2v4.1c0,1,0.2,1.5,1,1.5c0.4,0,0.6-0.1,0.8-0.1l0.1,1c-0.2,0.1-0.7,0.2-1.3,0.2
		c-0.6,0-1.2-0.2-1.5-0.6c-0.4-0.4-0.6-1.1-0.6-2v-4.2h-1.2v-1h1.2v-1.8L264.4,444z"/>
	<path fill="#CCCCCC" d="M268,442.7h1.4v4.8l0,0c0.2-0.4,0.6-0.7,1-1c0.4-0.2,0.9-0.4,1.4-0.4c1,0,2.7,0.6,2.7,3.2v4.6h-1.4v-4.4
		c0-1.3-0.5-2.3-1.7-2.3c-0.9,0-1.6,0.6-1.9,1.4c-0.1,0.2-0.1,0.4-0.1,0.6v4.6H268L268,442.7L268,442.7z"/>
	<path fill="#CCCCCC" d="M277.6,450.3c0,1.9,1.3,2.7,2.6,2.7c1,0,1.6-0.2,2.1-0.4l0.2,1c-0.5,0.2-1.3,0.5-2.5,0.5
		c-2.4,0-3.8-1.6-3.8-3.9s1.3-4.1,3.6-4.1c2.5,0,3.2,2.2,3.2,3.6c0,0.3,0,0.5-0.1,0.6L277.6,450.3L277.6,450.3L277.6,450.3z
		 M281.6,449.3c0-0.9-0.4-2.3-1.9-2.3c-1.4,0-2.1,1.3-2.1,2.3H281.6z"/>
	<path fill="#CCCCCC" d="M289.8,444v2.2h2v1h-2v4.1c0,1,0.2,1.5,1,1.5c0.4,0,0.6-0.1,0.8-0.1l0.1,1c-0.2,0.1-0.7,0.2-1.3,0.2
		c-0.6,0-1.2-0.2-1.5-0.6c-0.4-0.4-0.6-1.1-0.6-2v-4.2h-1.2v-1h1.2v-1.8L289.8,444z"/>
	<path fill="#CCCCCC" d="M300.2,450c0,2.9-2,4-3.8,4c-2.1,0-3.6-1.5-3.6-4c0-2.5,1.7-4,3.8-4C298.7,446.1,300.2,447.7,300.2,450z
		 M294.1,450c0,1.7,1,2.9,2.3,2.9s2.3-1.3,2.3-3c0-1.3-0.6-2.9-2.3-2.9C294.8,447.1,294.1,448.6,294.1,450z"/>
	<path fill="#CCCCCC" d="M301.9,448.7c0-1,0-1.7-0.1-2.5h1.3l0.1,1.3l0,0c0.6-1,1.5-1.5,2.7-1.5c1.8,0,3.2,1.6,3.2,3.9
		c0,2.8-1.7,4.1-3.5,4.1c-1,0-1.9-0.5-2.4-1.2l0,0v4.2h-1.3V448.7z M303.3,450.7c0,0.2,0,0.4,0.1,0.6c0.2,1,1.1,1.7,2.1,1.7
		c1.5,0,2.3-1.2,2.3-2.9c0-1.5-0.8-2.9-2.3-2.9c-1,0-1.8,0.7-2.1,1.7c-0.1,0.2-0.1,0.4-0.1,0.6L303.3,450.7L303.3,450.7z"/>
	<path fill="#CCCCCC" d="M321.2,450c0,2.9-2,4-3.8,4c-2.1,0-3.6-1.5-3.6-4c0-2.5,1.7-4,3.8-4C319.7,446.1,321.2,447.7,321.2,450z
		 M315.1,450c0,1.7,1,2.9,2.3,2.9c1.3,0,2.3-1.3,2.3-3c0-1.3-0.6-2.9-2.3-2.9C315.8,447.1,315.1,448.6,315.1,450z"/>
	<path fill="#CCCCCC" d="M323.1,453.9v-6.7H322v-1h1.1v-0.4c0-1.1,0.2-2.1,0.9-2.7c0.6-0.5,1.2-0.7,1.9-0.7c0.5,0,1,0.1,1.2,0.2
		l-0.2,1.1c-0.2-0.1-0.5-0.2-0.9-0.2c-1.2,0-1.5,1-1.5,2.2v0.4h1.8v1h-1.8v6.6L323.1,453.9L323.1,453.9z"/>
	<path fill="#CCCCCC" d="M332.6,444v2.2h2v1h-2v4.1c0,1,0.2,1.5,1,1.5c0.4,0,0.6-0.1,0.8-0.1l0.1,1c-0.2,0.1-0.7,0.2-1.3,0.2
		c-0.6,0-1.2-0.2-1.5-0.6c-0.4-0.4-0.6-1.1-0.6-2v-4.2H330v-1h1.2v-1.8L332.6,444z"/>
	<path fill="#CCCCCC" d="M336.2,442.7h1.4v4.8l0,0c0.2-0.4,0.6-0.7,1-1c0.4-0.2,0.9-0.4,1.4-0.4c1,0,2.7,0.6,2.7,3.2v4.6h-1.4v-4.4
		c0-1.3-0.5-2.3-1.7-2.3c-0.9,0-1.6,0.6-1.9,1.4c-0.1,0.2-0.1,0.4-0.1,0.6v4.6h-1.4L336.2,442.7L336.2,442.7z"/>
	<path fill="#CCCCCC" d="M345.8,450.3c0,1.9,1.3,2.7,2.6,2.7c1,0,1.6-0.2,2.1-0.4l0.2,1c-0.5,0.2-1.3,0.5-2.5,0.5
		c-2.4,0-3.8-1.6-3.8-3.9s1.3-4.1,3.6-4.1c2.5,0,3.2,2.2,3.2,3.6c0,0.3,0,0.5-0.1,0.6L345.8,450.3L345.8,450.3z M349.9,449.3
		c0-0.9-0.4-2.3-1.9-2.3c-1.4,0-2.1,1.3-2.1,2.3H349.9z"/>
	<path fill="#CCCCCC" d="M356.3,448.7c0-1,0-1.7-0.1-2.5h1.3l0.1,1.3l0,0c0.6-1,1.5-1.5,2.7-1.5c1.8,0,3.2,1.6,3.2,3.9
		c0,2.8-1.7,4.1-3.5,4.1c-1,0-1.9-0.5-2.4-1.2l0,0v4.2h-1.3L356.3,448.7L356.3,448.7z M357.7,450.7c0,0.2,0,0.4,0.1,0.6
		c0.2,1,1.1,1.7,2.1,1.7c1.5,0,2.3-1.2,2.3-2.9c0-1.5-0.8-2.9-2.3-2.9c-1,0-1.8,0.7-2.1,1.7c-0.1,0.2-0.1,0.4-0.1,0.6L357.7,450.7
		L357.7,450.7z"/>
	<path fill="#CCCCCC" d="M369.5,453.9l-0.1-1h-0.1c-0.4,0.6-1.3,1.1-2.4,1.1c-1.6,0-2.4-1.1-2.4-2.2c0-1.8,1.7-2.9,4.6-2.9v-0.2
		c0-0.6-0.2-1.7-1.7-1.7c-0.7,0-1.4,0.2-2,0.6l-0.3-1c0.6-0.4,1.6-0.7,2.5-0.7c2.4,0,2.9,1.6,2.9,3.2v2.9c0,0.6,0,1.3,0.2,1.8
		L369.5,453.9L369.5,453.9z M369.4,450c-1.5,0-3.2,0.2-3.2,1.7c0,0.9,0.6,1.3,1.3,1.3c1,0,1.7-0.6,1.8-1.3c0.1-0.2,0.1-0.3,0.1-0.5
		V450z"/>
	<path fill="#CCCCCC" d="M379.6,446.2c0,0.6-0.1,1.2-0.1,2.1v4.4c0,1.7-0.3,2.9-1.1,3.5c-0.7,0.7-1.8,1-2.8,1c-1,0-1.9-0.2-2.5-0.6
		l0.3-1c0.5,0.3,1.3,0.6,2.2,0.6c1.4,0,2.5-0.7,2.5-2.7v-0.9l0,0c-0.4,0.7-1.3,1.3-2.5,1.3c-1.9,0-3.2-1.6-3.2-3.7
		c0-2.6,1.7-4,3.5-4c1.3,0,2.1,0.7,2.4,1.3l0,0l0.1-1.2L379.6,446.2L379.6,446.2z M378.1,449.2c0-0.2,0-0.5-0.1-0.6
		c-0.2-0.8-1-1.5-2-1.5c-1.3,0-2.3,1.1-2.3,2.9c0,1.5,0.8,2.8,2.3,2.8c0.9,0,1.7-0.6,1.9-1.4c0.1-0.2,0.1-0.5,0.1-0.7L378.1,449.2
		L378.1,449.2z"/>
	<path fill="#CCCCCC" d="M382.6,450.3c0,1.9,1.3,2.7,2.6,2.7c1,0,1.6-0.2,2.1-0.4l0.2,1c-0.5,0.2-1.3,0.5-2.5,0.5
		c-2.4,0-3.8-1.6-3.8-3.9s1.3-4.1,3.6-4.1c2.5,0,3.2,2.2,3.2,3.6c0,0.3,0,0.5-0.1,0.6L382.6,450.3L382.6,450.3z M386.6,449.3
		c0-0.9-0.4-2.3-1.9-2.3c-1.4,0-2.1,1.3-2.1,2.3H386.6z"/>
	<path fill="#CCCCCC" d="M389.6,452.5c0.4,0.2,1.1,0.6,1.8,0.6c1,0,1.5-0.5,1.5-1.1s-0.4-1-1.4-1.4c-1.3-0.5-2.1-1.3-2.1-2.1
		c0-1.3,1-2.2,2.6-2.2c0.8,0,1.4,0.2,1.9,0.5l-0.3,1c-0.3-0.2-0.9-0.5-1.6-0.5c-0.8,0-1.3,0.5-1.3,1c0,0.6,0.5,1,1.4,1.3
		c1.3,0.5,2,1.2,2,2.3c0,1.3-1,2.3-2.9,2.3c-0.9,0-1.6-0.2-2.1-0.6L389.6,452.5z"/>
	<path fill="#CCCCCC" d="M395.5,453c0-0.6,0.4-1,1-1c0.6,0,1,0.4,1,1c0,0.6-0.4,1-1,1C395.9,454.1,395.5,453.6,395.5,453z"/>
	<path fill="#CCCCCC" d="M403.9,444.4h-3.2v-1.2h7.9v1.2h-3.2v9.5h-1.4L403.9,444.4L403.9,444.4z"/>
	<path fill="#CCCCCC" d="M415.6,450c0,2.9-2,4-3.8,4c-2.1,0-3.6-1.5-3.6-4c0-2.5,1.7-4,3.8-4C414,446.1,415.6,447.7,415.6,450z
		 M409.5,450c0,1.7,1,2.9,2.3,2.9s2.3-1.3,2.3-3c0-1.3-0.6-2.9-2.3-2.9C410.2,447.1,409.5,448.6,409.5,450z"/>
	<path fill="#CCCCCC" d="M423.7,451.8c0,0.8,0,1.5,0.1,2.1h-1.3l-0.1-1.3l0,0c-0.4,0.6-1.2,1.4-2.5,1.4c-1.2,0-2.6-0.6-2.6-3.3v-4.5
		h1.4v4.3c0,1.4,0.5,2.5,1.7,2.5c1,0,1.6-0.6,1.8-1.3c0.1-0.2,0.2-0.5,0.2-0.7v-4.7h1.4v5.5H423.7z"/>
	<path fill="#CCCCCC" d="M431.5,453.6c-0.4,0.2-1.2,0.5-2.2,0.5c-2.3,0-3.8-1.6-3.8-3.9c0-2.4,1.6-4,4.1-4c0.8,0,1.6,0.2,1.9,0.4
		l-0.3,1.1c-0.3-0.2-0.9-0.4-1.6-0.4c-1.7,0-2.7,1.3-2.7,2.9c0,1.7,1.1,2.9,2.7,2.9c0.8,0,1.3-0.2,1.7-0.4L431.5,453.6z"/>
	<path fill="#CCCCCC" d="M433.1,442.7h1.4v4.8l0,0c0.2-0.4,0.6-0.7,1-1c0.4-0.2,0.9-0.4,1.4-0.4c1,0,2.7,0.6,2.7,3.2v4.6h-1.4v-4.4
		c0-1.3-0.5-2.3-1.7-2.3c-0.9,0-1.6,0.6-1.9,1.4c-0.1,0.2-0.1,0.4-0.1,0.6v4.6h-1.4V442.7z"/>
	<path fill="#CCCCCC" d="M446.9,444v2.2h2v1h-2v4.1c0,1,0.2,1.5,1,1.5c0.4,0,0.6-0.1,0.8-0.1l0.1,1c-0.2,0.1-0.7,0.2-1.3,0.2
		c-0.6,0-1.2-0.2-1.5-0.6c-0.4-0.4-0.6-1.1-0.6-2v-4.2h-1.1v-1h1.2v-1.8L446.9,444z"/>
	<path fill="#CCCCCC" d="M450.5,442.7h1.4v4.8l0,0c0.2-0.4,0.6-0.7,1-1c0.4-0.2,0.9-0.4,1.4-0.4c1,0,2.7,0.6,2.7,3.2v4.6h-1.4v-4.4
		c0-1.3-0.5-2.3-1.7-2.3c-0.9,0-1.6,0.6-1.9,1.4c-0.1,0.2-0.1,0.4-0.1,0.6v4.6h-1.4V442.7z"/>
	<path fill="#CCCCCC" d="M460.9,444.1c0,0.5-0.3,0.9-0.9,0.9c-0.5,0-0.9-0.4-0.9-0.9c0-0.5,0.4-0.9,0.9-0.9S460.9,443.5,460.9,444.1
		z M459.3,453.9v-7.7h1.4v7.7H459.3z"/>
	<path fill="#CCCCCC" d="M462.8,452.5c0.4,0.2,1.1,0.6,1.8,0.6c1,0,1.5-0.5,1.5-1.1s-0.4-1-1.4-1.4c-1.3-0.5-2.1-1.3-2.1-2.1
		c0-1.3,1-2.2,2.6-2.2c0.8,0,1.4,0.2,1.9,0.5l-0.3,1c-0.3-0.2-0.9-0.5-1.6-0.5c-0.8,0-1.3,0.5-1.3,1c0,0.6,0.5,1,1.4,1.3
		c1.3,0.5,2,1.2,2,2.3c0,1.3-1,2.3-2.9,2.3c-0.9,0-1.6-0.2-2.1-0.6L462.8,452.5z"/>
	<path fill="#CCCCCC" d="M479.2,446.2c0,0.6-0.1,1.2-0.1,2.1v4.4c0,1.7-0.3,2.9-1.1,3.5c-0.7,0.7-1.8,1-2.8,1c-1,0-1.9-0.2-2.5-0.6
		l0.3-1c0.5,0.3,1.3,0.6,2.2,0.6c1.4,0,2.5-0.7,2.5-2.7v-0.9l0,0c-0.4,0.7-1.3,1.3-2.5,1.3c-1.9,0-3.2-1.6-3.2-3.7
		c0-2.6,1.7-4,3.5-4c1.3,0,2.1,0.7,2.4,1.3l0,0l0.1-1.2L479.2,446.2L479.2,446.2z M477.8,449.2c0-0.2,0-0.5-0.1-0.6
		c-0.2-0.8-1-1.5-2-1.5c-1.3,0-2.3,1.1-2.3,2.9c0,1.5,0.8,2.8,2.3,2.8c0.9,0,1.7-0.6,1.9-1.4c0.1-0.2,0.1-0.5,0.1-0.7L477.8,449.2
		L477.8,449.2z"/>
	<path fill="#CCCCCC" d="M481.4,448.6c0-0.9,0-1.7-0.1-2.4h1.2l0.1,1.5h0.1c0.3-1,1.2-1.7,2.1-1.7c0.2,0,0.2,0,0.4,0.1v1.3
		c-0.2,0-0.3-0.1-0.5-0.1c-1,0-1.7,0.7-1.9,1.8c0,0.2-0.1,0.4-0.1,0.6v4.1h-1.3V448.6z"/>
	<path fill="#CCCCCC" d="M490.7,453.9l-0.1-1h-0.1c-0.4,0.6-1.3,1.1-2.4,1.1c-1.6,0-2.4-1.1-2.4-2.2c0-1.8,1.7-2.9,4.6-2.9v-0.2
		c0-0.6-0.2-1.7-1.7-1.7c-0.7,0-1.4,0.2-2,0.6l-0.3-1c0.6-0.4,1.6-0.7,2.5-0.7c2.4,0,2.9,1.6,2.9,3.2v2.9c0,0.6,0,1.3,0.2,1.8
		L490.7,453.9L490.7,453.9z M490.5,450c-1.5,0-3.2,0.2-3.2,1.7c0,0.9,0.6,1.3,1.3,1.3c1,0,1.7-0.6,1.8-1.3c0.1-0.2,0.1-0.3,0.1-0.5
		V450z"/>
	<path fill="#CCCCCC" d="M494.1,448.7c0-1,0-1.7-0.1-2.5h1.3l0.1,1.3l0,0c0.6-1,1.5-1.5,2.7-1.5c1.8,0,3.2,1.6,3.2,3.9
		c0,2.8-1.7,4.1-3.5,4.1c-1,0-1.9-0.5-2.4-1.2l0,0v4.2h-1.3L494.1,448.7L494.1,448.7z M495.5,450.7c0,0.2,0,0.4,0.1,0.6
		c0.2,1,1.1,1.7,2.1,1.7c1.5,0,2.3-1.2,2.3-2.9c0-1.5-0.8-2.9-2.3-2.9c-1,0-1.8,0.7-2.1,1.7c-0.1,0.2-0.1,0.4-0.1,0.6L495.5,450.7
		L495.5,450.7z"/>
	<path fill="#CCCCCC" d="M503.2,442.7h1.4v4.8l0,0c0.2-0.4,0.6-0.7,1-1c0.4-0.2,0.9-0.4,1.4-0.4c1,0,2.7,0.6,2.7,3.2v4.6h-1.4v-4.4
		c0-1.3-0.5-2.3-1.7-2.3c-0.9,0-1.6,0.6-1.9,1.4c-0.1,0.2-0.1,0.4-0.1,0.6v4.6h-1.4V442.7z"/>
	<path fill="#CCCCCC" d="M513.4,444.1c0,0.5-0.3,0.9-0.9,0.9c-0.5,0-0.9-0.4-0.9-0.9c0-0.5,0.4-0.9,0.9-0.9
		C513.1,443.2,513.4,443.5,513.4,444.1z M511.9,453.9v-7.7h1.4v7.7H511.9z"/>
	<path fill="#CCCCCC" d="M521.1,453.6c-0.4,0.2-1.2,0.5-2.2,0.5c-2.3,0-3.8-1.6-3.8-3.9c0-2.4,1.6-4,4.1-4c0.8,0,1.6,0.2,1.9,0.4
		l-0.3,1.1c-0.3-0.2-0.9-0.4-1.6-0.4c-1.7,0-2.7,1.3-2.7,2.9c0,1.7,1.1,2.9,2.7,2.9c0.8,0,1.3-0.2,1.7-0.4L521.1,453.6z"/>
	<path fill="#CCCCCC" d="M527.8,444v2.2h2v1h-2v4.1c0,1,0.2,1.5,1,1.5c0.4,0,0.6-0.1,0.8-0.1l0.1,1c-0.2,0.1-0.7,0.2-1.3,0.2
		c-0.6,0-1.2-0.2-1.5-0.6c-0.4-0.4-0.6-1.1-0.6-2v-4.2h-1.2v-1h1.2v-1.8L527.8,444z"/>
	<path fill="#CCCCCC" d="M538.2,450c0,2.9-2,4-3.8,4c-2.1,0-3.6-1.5-3.6-4c0-2.5,1.7-4,3.8-4C536.7,446.1,538.2,447.7,538.2,450z
		 M532.1,450c0,1.7,1,2.9,2.3,2.9s2.3-1.3,2.3-3c0-1.3-0.6-2.9-2.3-2.9C532.8,447.1,532.1,448.6,532.1,450z"/>
	<path fill="#CCCCCC" d="M116.4,469c0,2.9-2,4-3.8,4c-2.1,0-3.6-1.5-3.6-4c0-2.5,1.7-4,3.8-4C114.9,465.1,116.4,466.7,116.4,469z
		 M110.3,469c0,1.7,1,2.9,2.3,2.9s2.3-1.3,2.3-3c0-1.3-0.6-2.9-2.3-2.9C111,466.1,110.3,467.6,110.3,469z"/>
	<path fill="#CCCCCC" d="M118.2,467.7c0-1,0-1.7-0.1-2.5h1.3l0.1,1.3l0,0c0.6-1,1.5-1.5,2.7-1.5c1.8,0,3.2,1.6,3.2,3.9
		c0,2.8-1.7,4.1-3.5,4.1c-1,0-1.9-0.5-2.4-1.2l0,0v4.2h-1.3L118.2,467.7L118.2,467.7z M119.6,469.8c0,0.2,0,0.4,0.1,0.6
		c0.2,1,1.1,1.7,2.1,1.7c1.5,0,2.3-1.2,2.3-2.9c0-1.5-0.8-2.9-2.3-2.9c-1,0-1.8,0.7-2.1,1.7c-0.1,0.2-0.1,0.4-0.1,0.6L119.6,469.8
		L119.6,469.8z"/>
	<path fill="#CCCCCC" d="M128,469.3c0,1.9,1.3,2.7,2.6,2.7c1,0,1.6-0.2,2.1-0.4l0.2,1c-0.5,0.2-1.3,0.5-2.5,0.5
		c-2.4,0-3.8-1.6-3.8-3.9s1.3-4.1,3.6-4.1c2.5,0,3.2,2.2,3.2,3.6c0,0.3,0,0.5-0.1,0.6L128,469.3L128,469.3z M132.1,468.3
		c0-0.9-0.4-2.3-1.9-2.3c-1.4,0-2.1,1.3-2.1,2.3H132.1z"/>
	<path fill="#CCCCCC" d="M135.1,467.3c0-0.8,0-1.4-0.1-2.1h1.3l0.1,1.3l0,0c0.4-0.7,1.3-1.4,2.5-1.4c1,0,2.7,0.6,2.7,3.2v4.6h-1.3
		v-4.4c0-1.3-0.5-2.3-1.7-2.3c-1,0-1.7,0.6-1.9,1.4c-0.1,0.2-0.1,0.4-0.1,0.6v4.6h-1.4V467.3z"/>
	<path fill="#CCCCCC" d="M149,463v2.2h2v1h-2v4.1c0,1,0.2,1.5,1,1.5c0.4,0,0.6-0.1,0.8-0.1l0.1,1c-0.2,0.1-0.7,0.2-1.3,0.2
		c-0.6,0-1.2-0.2-1.5-0.6c-0.4-0.4-0.6-1.1-0.6-2v-4.2h-1.2v-1h1.2v-1.8L149,463z"/>
	<path fill="#CCCCCC" d="M152.5,461.7h1.4v4.8l0,0c0.2-0.4,0.6-0.7,1-1c0.4-0.2,0.9-0.4,1.4-0.4c1,0,2.7,0.6,2.7,3.2v4.6h-1.4v-4.4
		c0-1.3-0.5-2.3-1.7-2.3c-0.9,0-1.6,0.6-1.9,1.4c-0.1,0.2-0.1,0.4-0.1,0.6v4.6h-1.4V461.7z"/>
	<path fill="#CCCCCC" d="M162.1,469.3c0,1.9,1.3,2.7,2.6,2.7c1,0,1.6-0.2,2.1-0.4l0.2,1c-0.5,0.2-1.3,0.5-2.5,0.5
		c-2.4,0-3.8-1.6-3.8-3.9s1.3-4.1,3.6-4.1c2.5,0,3.2,2.2,3.2,3.6c0,0.3,0,0.5-0.1,0.6L162.1,469.3L162.1,469.3L162.1,469.3z
		 M166.1,468.3c0-0.9-0.4-2.3-1.9-2.3c-1.4,0-2.1,1.3-2.1,2.3H166.1z"/>
	<path fill="#CCCCCC" d="M172.6,467.3c0-0.8,0-1.4-0.1-2.1h1.2l0.1,1.3h0.1c0.4-0.7,1.1-1.4,2.4-1.4c1,0,1.8,0.6,2.1,1.5l0,0
		c0.2-0.4,0.6-0.8,0.9-1c0.5-0.3,1-0.6,1.7-0.6c1,0,2.5,0.6,2.5,3.3v4.5h-1.3v-4.4c0-1.5-0.6-2.4-1.7-2.4c-0.8,0-1.4,0.6-1.7,1.3
		c-0.1,0.2-0.1,0.5-0.1,0.7v4.8h-1.3v-4.6c0-1.2-0.6-2.1-1.6-2.1c-0.9,0-1.5,0.7-1.7,1.4c-0.1,0.2-0.1,0.5-0.1,0.7v4.6h-1.3
		L172.6,467.3L172.6,467.3z"/>
	<path fill="#CCCCCC" d="M186.6,469.3c0,1.9,1.3,2.7,2.6,2.7c1,0,1.6-0.2,2.1-0.4l0.2,1c-0.5,0.2-1.3,0.5-2.5,0.5
		c-2.4,0-3.8-1.6-3.8-3.9s1.3-4.1,3.6-4.1c2.5,0,3.2,2.2,3.2,3.6c0,0.3,0,0.5-0.1,0.6L186.6,469.3L186.6,469.3L186.6,469.3z
		 M190.7,468.3c0-0.9-0.4-2.3-1.9-2.3c-1.4,0-2.1,1.3-2.1,2.3H190.7z"/>
	<path fill="#CCCCCC" d="M193.8,467.3c0-0.8,0-1.4-0.1-2.1h1.3l0.1,1.3l0,0c0.4-0.7,1.3-1.4,2.5-1.4c1,0,2.7,0.6,2.7,3.2v4.6h-1.4
		v-4.4c0-1.3-0.5-2.3-1.7-2.3c-1,0-1.7,0.6-1.9,1.4c-0.1,0.2-0.1,0.4-0.1,0.6v4.6h-1.4L193.8,467.3L193.8,467.3L193.8,467.3z"/>
	<path fill="#CCCCCC" d="M209,470.8c0,0.8,0,1.5,0.1,2.1h-1.3l-0.1-1.3l0,0c-0.4,0.6-1.2,1.4-2.5,1.4c-1.2,0-2.6-0.6-2.6-3.3v-4.5
		h1.4v4.3c0,1.4,0.5,2.5,1.7,2.5c1,0,1.6-0.6,1.8-1.3c0.1-0.2,0.2-0.5,0.2-0.7v-4.7h1.4v5.5H209z"/>
	<path fill="#CCCCCC" d="M216.3,463v2.2h2v1h-2v4.1c0,1,0.2,1.5,1,1.5c0.4,0,0.6-0.1,0.8-0.1l0.1,1c-0.2,0.1-0.7,0.2-1.3,0.2
		c-0.6,0-1.2-0.2-1.5-0.6c-0.4-0.4-0.6-1.1-0.6-2v-4.2h-1.2v-1h1.2v-1.8L216.3,463z"/>
	<path fill="#CCCCCC" d="M219.8,461.7h1.4v4.8l0,0c0.2-0.4,0.6-0.7,1-1c0.4-0.2,0.9-0.4,1.4-0.4c1,0,2.7,0.6,2.7,3.2v4.6H225v-4.4
		c0-1.3-0.5-2.3-1.7-2.3c-0.9,0-1.6,0.6-1.9,1.4c-0.1,0.2-0.1,0.4-0.1,0.6v4.6h-1.4V461.7z"/>
	<path fill="#CCCCCC" d="M232.9,472.9l-0.1-1h-0.1c-0.4,0.6-1.3,1.1-2.4,1.1c-1.6,0-2.4-1.1-2.4-2.2c0-1.8,1.7-2.9,4.6-2.9v-0.2
		c0-0.6-0.2-1.7-1.7-1.7c-0.7,0-1.4,0.2-2,0.6l-0.3-1c0.6-0.4,1.6-0.7,2.5-0.7c2.4,0,2.9,1.6,2.9,3.2v2.9c0,0.6,0,1.3,0.2,1.8
		L232.9,472.9L232.9,472.9z M232.7,469c-1.5,0-3.2,0.2-3.2,1.7c0,0.9,0.6,1.3,1.3,1.3c1,0,1.7-0.6,1.8-1.3c0.1-0.2,0.1-0.3,0.1-0.5
		V469z"/>
	<path fill="#CCCCCC" d="M237.9,463v2.2h2v1h-2v4.1c0,1,0.2,1.5,1,1.5c0.4,0,0.6-0.1,0.8-0.1l0.1,1c-0.2,0.1-0.7,0.2-1.3,0.2
		c-0.6,0-1.2-0.2-1.5-0.6c-0.4-0.4-0.6-1.1-0.6-2v-4.2h-1.2v-1h1.2v-1.8L237.9,463z"/>
	<path fill="#CCCCCC" d="M249.1,472.9l-0.1-1h-0.1c-0.4,0.6-1.3,1.1-2.4,1.1c-1.6,0-2.4-1.1-2.4-2.2c0-1.8,1.7-2.9,4.6-2.9v-0.2
		c0-0.6-0.2-1.7-1.7-1.7c-0.7,0-1.4,0.2-2,0.6l-0.3-1c0.6-0.4,1.6-0.7,2.5-0.7c2.4,0,2.9,1.6,2.9,3.2v2.9c0,0.6,0,1.3,0.2,1.8
		L249.1,472.9L249.1,472.9z M248.9,469c-1.5,0-3.2,0.2-3.2,1.7c0,0.9,0.6,1.3,1.3,1.3c1,0,1.7-0.6,1.8-1.3c0.1-0.2,0.1-0.3,0.1-0.5
		V469z"/>
	<path fill="#CCCCCC" d="M252.5,461.7h1.4v11.2h-1.4V461.7z"/>
	<path fill="#CCCCCC" d="M256.2,461.7h1.4v11.2h-1.4V461.7z"/>
	<path fill="#CCCCCC" d="M266.9,469c0,2.9-2,4-3.8,4c-2.1,0-3.6-1.5-3.6-4c0-2.5,1.7-4,3.8-4C265.4,465.1,266.9,466.7,266.9,469z
		 M260.8,469c0,1.7,1,2.9,2.3,2.9c1.3,0,2.3-1.3,2.3-3c0-1.3-0.6-2.9-2.3-2.9C261.5,466.1,260.8,467.6,260.8,469z"/>
	<path fill="#CCCCCC" d="M269.1,465.2l1,3.9c0.2,0.9,0.4,1.7,0.6,2.5h0.1c0.2-0.8,0.4-1.6,0.7-2.5l1.3-3.9h1.2l1.2,3.8
		c0.3,1,0.5,1.7,0.7,2.5h0.1c0.2-0.8,0.3-1.6,0.6-2.5l1.1-3.9h1.3l-2.5,7.7h-1.3l-1.2-3.6c-0.2-0.9-0.5-1.6-0.7-2.5l0,0
		c-0.2,1-0.4,1.7-0.7,2.5l-1.3,3.6h-1.3l-2.3-7.7H269.1z"/>
	<path fill="#CCCCCC" d="M279.9,471.5c0.4,0.2,1.1,0.6,1.8,0.6c1,0,1.5-0.5,1.5-1.1s-0.4-1-1.4-1.4c-1.3-0.5-2.1-1.3-2.1-2.1
		c0-1.3,1-2.2,2.6-2.2c0.8,0,1.4,0.2,1.9,0.5l-0.3,1c-0.3-0.2-0.9-0.5-1.6-0.5c-0.8,0-1.3,0.5-1.3,1c0,0.6,0.5,1,1.4,1.3
		c1.3,0.5,2,1.2,2,2.3c0,1.3-1,2.3-2.9,2.3c-0.9,0-1.6-0.2-2.1-0.6L279.9,471.5z"/>
	<path fill="#CCCCCC" d="M290.3,465.2l1.7,4.5c0.2,0.5,0.4,1.1,0.5,1.6l0,0c0.2-0.5,0.3-1,0.5-1.6l1.5-4.5h1.5l-2.1,5.5
		c-1,2.6-1.7,4-2.6,4.8c-0.7,0.6-1.3,0.9-1.7,0.9l-0.3-1.2c0.3-0.1,0.8-0.3,1.2-0.7c0.4-0.3,0.9-0.9,1.2-1.6
		c0.1-0.2,0.1-0.2,0.1-0.3c0-0.1,0-0.2-0.1-0.4l-2.9-7L290.3,465.2L290.3,465.2z"/>
	<path fill="#CCCCCC" d="M304,469c0,2.9-2,4-3.8,4c-2.1,0-3.6-1.5-3.6-4c0-2.5,1.7-4,3.8-4C302.5,465.1,304,466.7,304,469z
		 M297.9,469c0,1.7,1,2.9,2.3,2.9s2.3-1.3,2.3-3c0-1.3-0.6-2.9-2.3-2.9C298.6,466.1,297.9,467.6,297.9,469z"/>
	<path fill="#CCCCCC" d="M312.1,470.8c0,0.8,0,1.5,0.1,2.1h-1.3l-0.1-1.3l0,0c-0.4,0.6-1.2,1.4-2.5,1.4c-1.2,0-2.6-0.6-2.6-3.3v-4.5
		h1.4v4.3c0,1.4,0.5,2.5,1.7,2.5c1,0,1.6-0.6,1.8-1.3c0.1-0.2,0.2-0.5,0.2-0.7v-4.7h1.4v5.5H312.1z"/>
	<path fill="#CCCCCC" d="M319.5,463v2.2h2v1h-2v4.1c0,1,0.2,1.5,1,1.5c0.4,0,0.6-0.1,0.8-0.1l0.1,1c-0.2,0.1-0.7,0.2-1.3,0.2
		c-0.6,0-1.2-0.2-1.5-0.6c-0.4-0.4-0.6-1.1-0.6-2v-4.2h-1.2v-1h1.2v-1.8L319.5,463z"/>
	<path fill="#CCCCCC" d="M329.9,469c0,2.9-2,4-3.8,4c-2.1,0-3.6-1.5-3.6-4c0-2.5,1.7-4,3.8-4C328.4,465.1,329.9,466.7,329.9,469z
		 M323.8,469c0,1.7,1,2.9,2.3,2.9c1.3,0,2.3-1.3,2.3-3c0-1.3-0.6-2.9-2.3-2.9C324.6,466.1,323.8,467.6,323.8,469z"/>
	<path fill="#CCCCCC" d="M340.5,472.6c-0.4,0.2-1.2,0.5-2.2,0.5c-2.3,0-3.8-1.6-3.8-3.9c0-2.4,1.6-4,4.1-4c0.8,0,1.6,0.2,1.9,0.4
		l-0.3,1.1c-0.3-0.2-0.9-0.4-1.6-0.4c-1.7,0-2.7,1.3-2.7,2.9c0,1.7,1.1,2.9,2.7,2.9c0.8,0,1.3-0.2,1.7-0.4L340.5,472.6z"/>
	<path fill="#CCCCCC" d="M342.1,461.7h1.4v4.8l0,0c0.2-0.4,0.6-0.7,1-1c0.4-0.2,0.9-0.4,1.4-0.4c1,0,2.7,0.6,2.7,3.2v4.6h-1.4v-4.4
		c0-1.3-0.5-2.3-1.7-2.3c-0.9,0-1.6,0.6-1.9,1.4c-0.1,0.2-0.1,0.4-0.1,0.6v4.6h-1.4L342.1,461.7L342.1,461.7z"/>
	<path fill="#CCCCCC" d="M355.1,472.9l-0.1-1H355c-0.4,0.6-1.3,1.1-2.4,1.1c-1.6,0-2.4-1.1-2.4-2.2c0-1.8,1.7-2.9,4.6-2.9v-0.2
		c0-0.6-0.2-1.7-1.7-1.7c-0.7,0-1.4,0.2-2,0.6l-0.3-1c0.6-0.4,1.6-0.7,2.5-0.7c2.4,0,2.9,1.6,2.9,3.2v2.9c0,0.6,0,1.3,0.2,1.8
		L355.1,472.9L355.1,472.9z M355,469c-1.5,0-3.2,0.2-3.2,1.7c0,0.9,0.6,1.3,1.3,1.3c1,0,1.7-0.6,1.8-1.3c0.1-0.2,0.1-0.3,0.1-0.5
		V469z"/>
	<path fill="#CCCCCC" d="M358.5,467.3c0-0.8,0-1.4-0.1-2.1h1.3l0.1,1.3l0,0c0.4-0.7,1.3-1.4,2.5-1.4c1,0,2.7,0.6,2.7,3.2v4.6h-1.4
		v-4.4c0-1.3-0.5-2.3-1.7-2.3c-1,0-1.7,0.6-1.9,1.4c-0.1,0.2-0.1,0.4-0.1,0.6v4.6h-1.4L358.5,467.3L358.5,467.3z"/>
	<path fill="#CCCCCC" d="M374,465.2c0,0.6-0.1,1.2-0.1,2.1v4.4c0,1.7-0.3,2.9-1.1,3.5c-0.7,0.7-1.8,1-2.8,1c-1,0-1.9-0.2-2.5-0.6
		l0.3-1c0.5,0.3,1.3,0.6,2.2,0.6c1.4,0,2.5-0.7,2.5-2.7v-0.9l0,0c-0.4,0.7-1.3,1.3-2.5,1.3c-1.9,0-3.2-1.6-3.2-3.7
		c0-2.6,1.7-4,3.5-4c1.3,0,2.1,0.7,2.4,1.3l0,0l0.1-1.2L374,465.2L374,465.2z M372.5,468.3c0-0.2,0-0.5-0.1-0.6
		c-0.2-0.8-1-1.5-2-1.5c-1.3,0-2.3,1.1-2.3,2.9c0,1.5,0.8,2.8,2.3,2.8c0.9,0,1.7-0.6,1.9-1.4c0.1-0.2,0.1-0.5,0.1-0.7L372.5,468.3
		L372.5,468.3L372.5,468.3z"/>
	<path fill="#CCCCCC" d="M377,469.3c0,1.9,1.3,2.7,2.6,2.7c1,0,1.6-0.2,2.1-0.4l0.2,1c-0.5,0.2-1.3,0.5-2.5,0.5
		c-2.4,0-3.8-1.6-3.8-3.9s1.3-4.1,3.6-4.1c2.5,0,3.2,2.2,3.2,3.6c0,0.3,0,0.5-0.1,0.6L377,469.3L377,469.3z M381,468.3
		c0-0.9-0.4-2.3-1.9-2.3c-1.4,0-2.1,1.3-2.1,2.3H381z"/>
	<path fill="#CCCCCC" d="M389.2,463v2.2h2v1h-2v4.1c0,1,0.2,1.5,1,1.5c0.4,0,0.6-0.1,0.8-0.1l0.1,1c-0.2,0.1-0.7,0.2-1.3,0.2
		c-0.6,0-1.2-0.2-1.5-0.6c-0.4-0.4-0.6-1.1-0.6-2v-4.2h-1.2v-1h1.2v-1.8L389.2,463z"/>
	<path fill="#CCCCCC" d="M392.7,461.7h1.4v4.8l0,0c0.2-0.4,0.6-0.7,1-1c0.4-0.2,0.9-0.4,1.4-0.4c1,0,2.7,0.6,2.7,3.2v4.6h-1.4v-4.4
		c0-1.3-0.5-2.3-1.7-2.3c-0.9,0-1.6,0.6-1.9,1.4c-0.1,0.2-0.1,0.4-0.1,0.6v4.6h-1.4V461.7L392.7,461.7z"/>
	<path fill="#CCCCCC" d="M402.3,469.3c0,1.9,1.3,2.7,2.6,2.7c1,0,1.6-0.2,2.1-0.4l0.2,1c-0.5,0.2-1.3,0.5-2.5,0.5
		c-2.4,0-3.8-1.6-3.8-3.9s1.3-4.1,3.6-4.1c2.5,0,3.2,2.2,3.2,3.6c0,0.3,0,0.5-0.1,0.6L402.3,469.3L402.3,469.3z M406.4,468.3
		c0-0.9-0.4-2.3-1.9-2.3c-1.4,0-2.1,1.3-2.1,2.3H406.4z"/>
	<path fill="#CCCCCC" d="M412.8,461.7h1.4v11.2h-1.4V461.7z"/>
	<path fill="#CCCCCC" d="M420.8,472.9l-0.1-1h-0.1c-0.4,0.6-1.3,1.1-2.4,1.1c-1.6,0-2.4-1.1-2.4-2.2c0-1.8,1.7-2.9,4.6-2.9v-0.2
		c0-0.6-0.2-1.7-1.7-1.7c-0.7,0-1.4,0.2-2,0.6l-0.3-1c0.6-0.4,1.6-0.7,2.5-0.7c2.4,0,2.9,1.6,2.9,3.2v2.9c0,0.6,0,1.3,0.2,1.8
		L420.8,472.9L420.8,472.9z M420.6,469c-1.5,0-3.2,0.2-3.2,1.7c0,0.9,0.6,1.3,1.3,1.3c1,0,1.7-0.6,1.8-1.3c0.1-0.2,0.1-0.3,0.1-0.5
		V469z"/>
	<path fill="#CCCCCC" d="M424.2,467.3c0-0.8,0-1.4-0.1-2.1h1.3l0.1,1.3l0,0c0.4-0.7,1.3-1.4,2.5-1.4c1,0,2.7,0.6,2.7,3.2v4.6h-1.3
		v-4.4c0-1.3-0.5-2.3-1.7-2.3c-1,0-1.7,0.6-1.9,1.4c-0.1,0.2-0.1,0.4-0.1,0.6v4.6h-1.4V467.3z"/>
	<path fill="#CCCCCC" d="M439.6,465.2c0,0.6-0.1,1.2-0.1,2.1v4.4c0,1.7-0.3,2.9-1.1,3.5c-0.7,0.7-1.8,1-2.8,1s-1.9-0.2-2.5-0.6
		l0.3-1c0.5,0.3,1.3,0.6,2.2,0.6c1.4,0,2.5-0.7,2.5-2.7v-0.9l0,0c-0.4,0.7-1.3,1.3-2.5,1.3c-1.9,0-3.2-1.6-3.2-3.7
		c0-2.6,1.7-4,3.5-4c1.3,0,2.1,0.7,2.4,1.3l0,0l0.1-1.2L439.6,465.2L439.6,465.2z M438.1,468.3c0-0.2,0-0.5-0.1-0.6
		c-0.2-0.8-1-1.5-2-1.5c-1.3,0-2.3,1.1-2.3,2.9c0,1.5,0.8,2.8,2.3,2.8c0.9,0,1.7-0.6,1.9-1.4c0.1-0.2,0.1-0.5,0.1-0.7L438.1,468.3
		L438.1,468.3z"/>
	<path fill="#CCCCCC" d="M448.3,470.8c0,0.8,0,1.5,0.1,2.1h-1.3l-0.1-1.3l0,0c-0.4,0.6-1.2,1.4-2.5,1.4c-1.2,0-2.6-0.6-2.6-3.3v-4.5
		h1.4v4.3c0,1.4,0.5,2.5,1.7,2.5c1,0,1.6-0.6,1.8-1.3c0.1-0.2,0.2-0.5,0.2-0.7v-4.7h1.4v5.5H448.3z"/>
	<path fill="#CCCCCC" d="M454.8,472.9l-0.1-1h-0.1c-0.4,0.6-1.3,1.1-2.4,1.1c-1.6,0-2.4-1.1-2.4-2.2c0-1.8,1.7-2.9,4.6-2.9v-0.2
		c0-0.6-0.2-1.7-1.7-1.7c-0.7,0-1.4,0.2-2,0.6l-0.3-1c0.6-0.4,1.6-0.7,2.5-0.7c2.4,0,2.9,1.6,2.9,3.2v2.9c0,0.6,0,1.3,0.2,1.8
		L454.8,472.9L454.8,472.9z M454.6,469c-1.5,0-3.2,0.2-3.2,1.7c0,0.9,0.6,1.3,1.3,1.3c1,0,1.7-0.6,1.8-1.3c0.1-0.2,0.1-0.3,0.1-0.5
		V469z"/>
	<path fill="#CCCCCC" d="M464.8,465.2c0,0.6-0.1,1.2-0.1,2.1v4.4c0,1.7-0.3,2.9-1.1,3.5c-0.7,0.7-1.8,1-2.8,1s-1.9-0.2-2.5-0.6
		l0.3-1c0.5,0.3,1.3,0.6,2.2,0.6c1.4,0,2.5-0.7,2.5-2.7v-0.9l0,0c-0.4,0.7-1.3,1.3-2.5,1.3c-1.9,0-3.2-1.6-3.2-3.7
		c0-2.6,1.7-4,3.5-4c1.3,0,2.1,0.7,2.4,1.3l0,0l0.1-1.2L464.8,465.2L464.8,465.2z M463.3,468.3c0-0.2,0-0.5-0.1-0.6
		c-0.2-0.8-1-1.5-2-1.5c-1.3,0-2.3,1.1-2.3,2.9c0,1.5,0.8,2.8,2.3,2.8c0.9,0,1.7-0.6,1.9-1.4c0.1-0.2,0.1-0.5,0.1-0.7L463.3,468.3
		L463.3,468.3z"/>
	<path fill="#CCCCCC" d="M467.8,469.3c0,1.9,1.3,2.7,2.6,2.7c1,0,1.6-0.2,2.1-0.4l0.2,1c-0.5,0.2-1.3,0.5-2.5,0.5
		c-2.4,0-3.8-1.6-3.8-3.9s1.3-4.1,3.6-4.1c2.5,0,3.2,2.2,3.2,3.6c0,0.3,0,0.5-0.1,0.6L467.8,469.3L467.8,469.3z M471.9,468.3
		c0-0.9-0.4-2.3-1.9-2.3c-1.4,0-2.1,1.3-2.1,2.3H471.9z"/>
	<path fill="#CCCCCC" d="M473.8,474.8c0.3-1,0.8-2.6,1-3.8l1.6-0.2c-0.4,1.3-1,3.1-1.5,3.9L473.8,474.8z"/>
	<path fill="#CCCCCC" d="M481.5,467.6c0-0.9,0-1.7-0.1-2.4h1.2l0.1,1.5h0.1c0.3-1,1.2-1.7,2.1-1.7c0.2,0,0.2,0,0.4,0.1v1.3
		c-0.2,0-0.3-0.1-0.5-0.1c-1,0-1.7,0.7-1.9,1.8c0,0.2-0.1,0.4-0.1,0.6v4.1h-1.3V467.6z"/>
	<path fill="#CCCCCC" d="M487.2,469.3c0,1.9,1.3,2.7,2.6,2.7c1,0,1.6-0.2,2.1-0.4l0.2,1c-0.5,0.2-1.3,0.5-2.5,0.5
		c-2.4,0-3.8-1.6-3.8-3.9s1.3-4.1,3.6-4.1c2.5,0,3.2,2.2,3.2,3.6c0,0.3,0,0.5-0.1,0.6L487.2,469.3L487.2,469.3z M491.3,468.3
		c0-0.9-0.4-2.3-1.9-2.3c-1.4,0-2.1,1.3-2.1,2.3H491.3z"/>
	<path fill="#CCCCCC" d="M498.6,472.9l-0.1-1h-0.1c-0.4,0.6-1.3,1.1-2.4,1.1c-1.6,0-2.4-1.1-2.4-2.2c0-1.8,1.7-2.9,4.6-2.9v-0.2
		c0-0.6-0.2-1.7-1.7-1.7c-0.7,0-1.4,0.2-2,0.6l-0.3-1c0.6-0.4,1.6-0.7,2.5-0.7c2.4,0,2.9,1.6,2.9,3.2v2.9c0,0.6,0,1.3,0.2,1.8
		L498.6,472.9L498.6,472.9z M498.4,469c-1.5,0-3.2,0.2-3.2,1.7c0,0.9,0.6,1.3,1.3,1.3c1,0,1.7-0.6,1.8-1.3c0.1-0.2,0.1-0.3,0.1-0.5
		V469z"/>
	<path fill="#CCCCCC" d="M508.6,461.7v9.3c0,0.7,0,1.4,0.1,2h-1.3l-0.1-1.3l0,0c-0.4,0.9-1.3,1.5-2.6,1.5c-1.8,0-3.2-1.6-3.2-3.9
		c0-2.5,1.6-4.1,3.4-4.1c1.2,0,2,0.6,2.3,1.2l0,0v-4.6L508.6,461.7L508.6,461.7z M507.3,468.3c0-0.2,0-0.4-0.1-0.6
		c-0.2-0.9-1-1.6-2-1.6c-1.4,0-2.3,1.3-2.3,2.9c0,1.6,0.8,2.9,2.3,2.9c1,0,1.8-0.6,2.1-1.7c0.1-0.2,0.1-0.4,0.1-0.6L507.3,468.3
		L507.3,468.3z"/>
	<path fill="#CCCCCC" d="M516,463v2.2h2v1h-2v4.1c0,1,0.2,1.5,1,1.5c0.4,0,0.6-0.1,0.8-0.1l0.1,1c-0.2,0.1-0.7,0.2-1.3,0.2
		c-0.6,0-1.2-0.2-1.5-0.6c-0.4-0.4-0.6-1.1-0.6-2v-4.2h-1.2v-1h1.2v-1.8L516,463z"/>
	<path fill="#CCCCCC" d="M519.5,461.7h1.4v4.8l0,0c0.2-0.4,0.6-0.7,1-1c0.4-0.2,0.9-0.4,1.4-0.4c1,0,2.7,0.6,2.7,3.2v4.6h-1.4v-4.4
		c0-1.3-0.5-2.3-1.7-2.3c-0.9,0-1.6,0.6-1.9,1.4c-0.1,0.2-0.1,0.4-0.1,0.6v4.6h-1.4V461.7z"/>
	<path fill="#CCCCCC" d="M529.1,469.3c0,1.9,1.3,2.7,2.6,2.7c1,0,1.6-0.2,2.1-0.4l0.2,1c-0.5,0.2-1.3,0.5-2.5,0.5
		c-2.4,0-3.8-1.6-3.8-3.9s1.3-4.1,3.6-4.1c2.5,0,3.2,2.2,3.2,3.6c0,0.3,0,0.5-0.1,0.6L529.1,469.3L529.1,469.3z M533.2,468.3
		c0-0.9-0.4-2.3-1.9-2.3c-1.4,0-2.1,1.3-2.1,2.3H533.2z"/>
	<path fill="#CCCCCC" d="M111,482.1c0,0.5-0.3,0.9-0.9,0.9c-0.5,0-0.9-0.4-0.9-0.9s0.4-0.9,0.9-0.9C110.7,481.2,111,481.6,111,482.1
		z M109.5,491.9v-7.7h1.4v7.7H109.5z"/>
	<path fill="#CCCCCC" d="M113.2,486.3c0-0.8,0-1.4-0.1-2.1h1.3l0.1,1.3l0,0c0.4-0.7,1.3-1.4,2.5-1.4c1,0,2.7,0.6,2.7,3.2v4.6h-1.4
		v-4.4c0-1.3-0.5-2.3-1.7-2.3c-1,0-1.7,0.6-1.9,1.4c-0.1,0.2-0.1,0.4-0.1,0.6v4.6h-1.4L113.2,486.3L113.2,486.3L113.2,486.3z"/>
	<path fill="#CCCCCC" d="M121.8,490.5c0.4,0.2,1.1,0.6,1.8,0.6c1,0,1.5-0.5,1.5-1.1s-0.4-1-1.4-1.4c-1.3-0.5-2.1-1.3-2.1-2.1
		c0-1.3,1-2.2,2.6-2.2c0.8,0,1.4,0.2,1.9,0.5l-0.3,1c-0.3-0.2-0.9-0.5-1.6-0.5c-0.8,0-1.3,0.5-1.3,1c0,0.6,0.5,1,1.4,1.3
		c1.3,0.5,2,1.2,2,2.3c0,1.3-1,2.3-2.9,2.3c-0.9,0-1.6-0.2-2.1-0.6L121.8,490.5z"/>
	<path fill="#CCCCCC" d="M130,482v2.2h2v1h-2v4.1c0,1,0.2,1.5,1,1.5c0.4,0,0.6-0.1,0.8-0.1l0.1,1c-0.2,0.1-0.7,0.2-1.3,0.2
		c-0.6,0-1.2-0.2-1.5-0.6c-0.4-0.4-0.6-1.1-0.6-2v-4.2h-1.2v-1h1.2v-1.8L130,482z"/>
	<path fill="#CCCCCC" d="M133.5,486.6c0-0.9,0-1.7-0.1-2.4h1.2l0.1,1.5h0.1c0.3-1,1.2-1.7,2.1-1.7c0.2,0,0.2,0,0.4,0.1v1.3
		c-0.2,0-0.3-0.1-0.5-0.1c-1,0-1.7,0.7-1.9,1.8c0,0.2-0.1,0.4-0.1,0.6v4.1h-1.3V486.6z"/>
	<path fill="#CCCCCC" d="M145.1,489.8c0,0.8,0,1.5,0.1,2.1h-1.3l-0.1-1.3l0,0c-0.4,0.6-1.2,1.4-2.5,1.4c-1.2,0-2.6-0.6-2.6-3.3v-4.5
		h1.4v4.3c0,1.4,0.5,2.5,1.7,2.5c1,0,1.6-0.6,1.8-1.3c0.1-0.2,0.2-0.5,0.2-0.7v-4.7h1.4v5.5H145.1z"/>
	<path fill="#CCCCCC" d="M152.8,491.6c-0.4,0.2-1.2,0.5-2.2,0.5c-2.3,0-3.8-1.6-3.8-3.9c0-2.4,1.6-4,4.1-4c0.8,0,1.6,0.2,1.9,0.4
		l-0.3,1.1c-0.3-0.2-0.9-0.4-1.6-0.4c-1.7,0-2.7,1.3-2.7,2.9c0,1.7,1.1,2.9,2.7,2.9c0.8,0,1.3-0.2,1.7-0.4L152.8,491.6z"/>
	<path fill="#CCCCCC" d="M156.4,482v2.2h2v1h-2v4.1c0,1,0.2,1.5,1,1.5c0.4,0,0.6-0.1,0.8-0.1l0.1,1c-0.2,0.1-0.7,0.2-1.3,0.2
		c-0.6,0-1.2-0.2-1.5-0.6c-0.4-0.4-0.6-1.1-0.6-2v-4.2h-1.2v-1h1.2v-1.8L156.4,482z"/>
	<path fill="#CCCCCC" d="M161.5,482.1c0,0.5-0.3,0.9-0.9,0.9c-0.5,0-0.9-0.4-0.9-0.9s0.4-0.9,0.9-0.9
		C161.2,481.2,161.5,481.6,161.5,482.1z M160,491.9v-7.7h1.4v7.7H160z"/>
	<path fill="#CCCCCC" d="M170.6,488c0,2.9-2,4-3.8,4c-2.1,0-3.6-1.5-3.6-4c0-2.5,1.7-4,3.8-4C169.1,484.1,170.6,485.7,170.6,488z
		 M164.5,488.1c0,1.7,1,2.9,2.3,2.9c1.3,0,2.3-1.3,2.3-3c0-1.3-0.6-2.9-2.3-2.9C165.2,485.1,164.5,486.6,164.5,488.1z"/>
	<path fill="#CCCCCC" d="M172.3,486.3c0-0.8,0-1.4-0.1-2.1h1.3l0.1,1.3l0,0c0.4-0.7,1.3-1.4,2.5-1.4c1,0,2.7,0.6,2.7,3.2v4.6h-1.3
		v-4.4c0-1.3-0.5-2.3-1.7-2.3c-1,0-1.7,0.6-1.9,1.4c-0.1,0.2-0.1,0.4-0.1,0.6v4.6h-1.4V486.3z"/>
	<path fill="#CCCCCC" d="M181,490.5c0.4,0.2,1.1,0.6,1.8,0.6c1,0,1.5-0.5,1.5-1.1s-0.4-1-1.4-1.4c-1.3-0.5-2.1-1.3-2.1-2.1
		c0-1.3,1-2.2,2.6-2.2c0.8,0,1.4,0.2,1.9,0.5l-0.3,1c-0.3-0.2-0.9-0.5-1.6-0.5c-0.8,0-1.3,0.5-1.3,1c0,0.6,0.5,1,1.4,1.3
		c1.3,0.5,2,1.2,2,2.3c0,1.3-1,2.3-2.9,2.3c-0.9,0-1.6-0.2-2.1-0.6L181,490.5z"/>
	<path fill="#CCCCCC" d="M186.3,493.8c0.3-1,0.8-2.6,1-3.8l1.6-0.2c-0.4,1.3-1,3.1-1.5,3.9L186.3,493.8z"/>
	<path fill="#CCCCCC" d="M193.8,491.9c0-0.6,0.1-1.3,0.1-2v-9.3h1.3v4.8l0,0c0.5-0.9,1.3-1.4,2.6-1.4c1.9,0,3.2,1.6,3.2,3.9
		c0,2.8-1.7,4.1-3.4,4.1c-1.1,0-2-0.4-2.5-1.4h-0.1l-0.1,1.3L193.8,491.9L193.8,491.9z M195.3,488.8c0,0.2,0,0.3,0.1,0.5
		c0.2,1,1.1,1.7,2.1,1.7c1.4,0,2.3-1.2,2.3-2.9c0-1.5-0.8-2.9-2.3-2.9c-1,0-1.8,0.6-2.1,1.7c0,0.2-0.1,0.3-0.1,0.6L195.3,488.8
		L195.3,488.8z"/>
	<path fill="#CCCCCC" d="M202.9,486.6c0-0.9,0-1.7-0.1-2.4h1.2l0.1,1.5h0.1c0.3-1,1.2-1.7,2.1-1.7c0.2,0,0.2,0,0.4,0.1v1.3
		c-0.2,0-0.3-0.1-0.5-0.1c-1,0-1.7,0.7-1.9,1.8c0,0.2-0.1,0.4-0.1,0.6v4.1h-1.3V486.6z"/>
	<path fill="#CCCCCC" d="M214.9,488c0,2.9-2,4-3.8,4c-2.1,0-3.6-1.5-3.6-4c0-2.5,1.7-4,3.8-4C213.4,484.1,214.9,485.7,214.9,488z
		 M208.8,488.1c0,1.7,1,2.9,2.3,2.9c1.3,0,2.3-1.3,2.3-3c0-1.3-0.6-2.9-2.3-2.9C209.5,485.1,208.8,486.6,208.8,488.1z"/>
	<path fill="#CCCCCC" d="M217.1,484.2l1,3.9c0.2,0.9,0.4,1.7,0.6,2.5h0.1c0.2-0.8,0.4-1.6,0.7-2.5l1.3-3.9h1.2l1.2,3.8
		c0.3,1,0.5,1.7,0.7,2.5h0.1c0.2-0.8,0.3-1.6,0.6-2.5l1.1-3.9h1.3l-2.5,7.7h-1.3l-1.2-3.6c-0.2-0.9-0.5-1.6-0.7-2.5l0,0
		c-0.2,1-0.4,1.7-0.7,2.5l-1.3,3.6H218l-2.3-7.7H217.1z"/>
	<path fill="#CCCCCC" d="M227.8,490.5c0.4,0.2,1.1,0.6,1.8,0.6c1,0,1.5-0.5,1.5-1.1s-0.4-1-1.4-1.4c-1.3-0.5-2.1-1.3-2.1-2.1
		c0-1.3,1-2.2,2.6-2.2c0.8,0,1.4,0.2,1.9,0.5l-0.3,1c-0.3-0.2-0.9-0.5-1.6-0.5c-0.8,0-1.3,0.5-1.3,1c0,0.6,0.5,1,1.4,1.3
		c1.3,0.5,2,1.2,2,2.3c0,1.3-1,2.3-2.9,2.3c-0.9,0-1.6-0.2-2.1-0.6L227.8,490.5z"/>
	<path fill="#CCCCCC" d="M235.1,488.3c0,1.9,1.3,2.7,2.6,2.7c1,0,1.6-0.2,2.1-0.4l0.2,1c-0.5,0.2-1.3,0.5-2.5,0.5
		c-2.4,0-3.8-1.6-3.8-3.9s1.3-4.1,3.6-4.1c2.5,0,3.2,2.2,3.2,3.6c0,0.3,0,0.5-0.1,0.6L235.1,488.3L235.1,488.3L235.1,488.3z
		 M239.2,487.3c0-0.9-0.4-2.3-1.9-2.3c-1.4,0-2.1,1.3-2.1,2.3H239.2z"/>
	<path fill="#CCCCCC" d="M251.1,491.6c-0.4,0.2-1.2,0.5-2.2,0.5c-2.3,0-3.8-1.6-3.8-3.9c0-2.4,1.6-4,4.1-4c0.8,0,1.6,0.2,1.9,0.4
		l-0.3,1.1c-0.3-0.2-0.9-0.4-1.6-0.4c-1.7,0-2.7,1.3-2.7,2.9c0,1.7,1.1,2.9,2.7,2.9c0.8,0,1.3-0.2,1.7-0.4L251.1,491.6z"/>
	<path fill="#CCCCCC" d="M259.6,488c0,2.9-2,4-3.8,4c-2.1,0-3.6-1.5-3.6-4c0-2.5,1.7-4,3.8-4C258.1,484.1,259.6,485.7,259.6,488z
		 M253.5,488.1c0,1.7,1,2.9,2.3,2.9c1.3,0,2.3-1.3,2.3-3c0-1.3-0.6-2.9-2.3-2.9C254.2,485.1,253.5,486.6,253.5,488.1z"/>
	<path fill="#CCCCCC" d="M261.3,486.3c0-0.8,0-1.4-0.1-2.1h1.3l0.1,1.3l0,0c0.4-0.7,1.3-1.4,2.5-1.4c1,0,2.7,0.6,2.7,3.2v4.6h-1.4
		v-4.4c0-1.3-0.5-2.3-1.7-2.3c-1,0-1.7,0.6-1.9,1.4c-0.1,0.2-0.1,0.4-0.1,0.6v4.6h-1.4L261.3,486.3L261.3,486.3z"/>
	<path fill="#CCCCCC" d="M271.7,482v2.2h2v1h-2v4.1c0,1,0.2,1.5,1,1.5c0.4,0,0.6-0.1,0.8-0.1l0.1,1c-0.2,0.1-0.7,0.2-1.3,0.2
		c-0.6,0-1.2-0.2-1.5-0.6c-0.4-0.4-0.6-1.1-0.6-2v-4.2h-1.2v-1h1.2v-1.8L271.7,482z"/>
	<path fill="#CCCCCC" d="M276,488.3c0,1.9,1.3,2.7,2.6,2.7c1,0,1.6-0.2,2.1-0.4l0.2,1c-0.5,0.2-1.3,0.5-2.5,0.5
		c-2.4,0-3.8-1.6-3.8-3.9s1.3-4.1,3.6-4.1c2.5,0,3.2,2.2,3.2,3.6c0,0.3,0,0.5-0.1,0.6L276,488.3L276,488.3L276,488.3z M280,487.3
		c0-0.9-0.4-2.3-1.9-2.3c-1.4,0-2.1,1.3-2.1,2.3H280z"/>
	<path fill="#CCCCCC" d="M283.1,486.3c0-0.8,0-1.4-0.1-2.1h1.3l0.1,1.3l0,0c0.4-0.7,1.3-1.4,2.5-1.4c1,0,2.7,0.6,2.7,3.2v4.6h-1.4
		v-4.4c0-1.3-0.5-2.3-1.7-2.3c-1,0-1.7,0.6-1.9,1.4c-0.1,0.2-0.1,0.4-0.1,0.6v4.6h-1.4L283.1,486.3L283.1,486.3z"/>
	<path fill="#CCCCCC" d="M293.6,482v2.2h2v1h-2v4.1c0,1,0.2,1.5,1,1.5c0.4,0,0.6-0.1,0.8-0.1l0.1,1c-0.2,0.1-0.7,0.2-1.3,0.2
		c-0.6,0-1.2-0.2-1.5-0.6c-0.4-0.4-0.6-1.1-0.6-2v-4.2H291v-1h1.2v-1.8L293.6,482z"/>
	<path fill="#CCCCCC" d="M296.2,493.8c0.3-1,0.8-2.6,1-3.8l1.6-0.2c-0.4,1.3-1,3.1-1.5,3.9L296.2,493.8z"/>
	<path fill="#CCCCCC" d="M310.3,480.7v9.3c0,0.7,0,1.4,0.1,2h-1.3l-0.1-1.3l0,0c-0.4,0.9-1.3,1.5-2.6,1.5c-1.8,0-3.2-1.6-3.2-3.9
		c0-2.5,1.6-4.1,3.4-4.1c1.2,0,2,0.6,2.3,1.2l0,0v-4.6H310.3z M308.9,487.3c0-0.2,0-0.4-0.1-0.6c-0.2-0.9-1-1.6-2-1.6
		c-1.4,0-2.3,1.3-2.3,2.9c0,1.6,0.8,2.9,2.3,2.9c1,0,1.8-0.6,2.1-1.7c0.1-0.2,0.1-0.4,0.1-0.6L308.9,487.3L308.9,487.3z"/>
	<path fill="#CCCCCC" d="M314.2,482.1c0,0.5-0.3,0.9-0.9,0.9c-0.5,0-0.9-0.4-0.9-0.9s0.4-0.9,0.9-0.9
		C313.9,481.2,314.2,481.6,314.2,482.1z M312.7,491.9v-7.7h1.4v7.7H312.7z"/>
	<path fill="#CCCCCC" d="M316.2,490.5c0.4,0.2,1.1,0.6,1.8,0.6c1,0,1.5-0.5,1.5-1.1s-0.4-1-1.4-1.4c-1.3-0.5-2.1-1.3-2.1-2.1
		c0-1.3,1-2.2,2.6-2.2c0.8,0,1.4,0.2,1.9,0.5l-0.3,1c-0.3-0.2-0.9-0.5-1.6-0.5c-0.8,0-1.3,0.5-1.3,1c0,0.6,0.5,1,1.4,1.3
		c1.3,0.5,2,1.2,2,2.3c0,1.3-1,2.3-2.9,2.3c-0.9,0-1.6-0.2-2.1-0.6L316.2,490.5z"/>
	<path fill="#CCCCCC" d="M322.7,486.7c0-1,0-1.7-0.1-2.5h1.3l0.1,1.3l0,0c0.6-1,1.5-1.5,2.7-1.5c1.8,0,3.2,1.6,3.2,3.9
		c0,2.8-1.7,4.1-3.5,4.1c-1,0-1.9-0.5-2.4-1.2l0,0v4.2h-1.3V486.7z M324,488.8c0,0.2,0,0.4,0.1,0.6c0.2,1,1.1,1.7,2.1,1.7
		c1.5,0,2.3-1.2,2.3-2.9c0-1.5-0.8-2.9-2.3-2.9c-1,0-1.8,0.7-2.1,1.7c-0.1,0.2-0.1,0.4-0.1,0.6L324,488.8L324,488.8L324,488.8z"/>
	<path fill="#CCCCCC" d="M331.6,480.7h1.4v11.2h-1.4V480.7z"/>
	<path fill="#CCCCCC" d="M339.6,491.9l-0.1-1h-0.1c-0.4,0.6-1.3,1.1-2.4,1.1c-1.6,0-2.4-1.1-2.4-2.2c0-1.8,1.7-2.9,4.6-2.9v-0.2
		c0-0.6-0.2-1.7-1.7-1.7c-0.7,0-1.4,0.2-2,0.6l-0.3-1c0.6-0.4,1.6-0.7,2.5-0.7c2.4,0,2.9,1.6,2.9,3.2v2.9c0,0.6,0,1.3,0.2,1.8
		L339.6,491.9L339.6,491.9z M339.4,488c-1.5,0-3.2,0.2-3.2,1.7c0,0.9,0.6,1.3,1.3,1.3c1,0,1.7-0.6,1.8-1.3c0.1-0.2,0.1-0.3,0.1-0.5
		V488z"/>
	<path fill="#CCCCCC" d="M343.4,484.2l1.7,4.5c0.2,0.5,0.4,1.1,0.5,1.6l0,0c0.2-0.5,0.3-1,0.5-1.6l1.5-4.5h1.5l-2.1,5.5
		c-1,2.6-1.7,4-2.6,4.8c-0.7,0.6-1.3,0.9-1.7,0.9l-0.3-1.2c0.3-0.1,0.8-0.3,1.2-0.7c0.4-0.3,0.9-0.9,1.2-1.6
		c0.1-0.2,0.1-0.2,0.1-0.3c0-0.1,0-0.2-0.1-0.4l-2.9-7L343.4,484.2L343.4,484.2z"/>
	<path fill="#CCCCCC" d="M359.2,491.6c-0.4,0.2-1.2,0.5-2.2,0.5c-2.3,0-3.8-1.6-3.8-3.9c0-2.4,1.6-4,4.1-4c0.8,0,1.6,0.2,1.9,0.4
		l-0.3,1.1c-0.3-0.2-0.9-0.4-1.6-0.4c-1.7,0-2.7,1.3-2.7,2.9c0,1.7,1.1,2.9,2.7,2.9c0.8,0,1.3-0.2,1.7-0.4L359.2,491.6z"/>
	<path fill="#CCCCCC" d="M360.8,486.6c0-0.9,0-1.7-0.1-2.4h1.2l0.1,1.5h0.1c0.3-1,1.2-1.7,2.1-1.7c0.2,0,0.2,0,0.4,0.1v1.3
		c-0.2,0-0.3-0.1-0.5-0.1c-1,0-1.7,0.7-1.9,1.8c0,0.2-0.1,0.4-0.1,0.6v4.1h-1.3V486.6z"/>
	<path fill="#CCCCCC" d="M366.6,488.3c0,1.9,1.3,2.7,2.6,2.7c1,0,1.6-0.2,2.1-0.4l0.2,1c-0.5,0.2-1.3,0.5-2.5,0.5
		c-2.4,0-3.8-1.6-3.8-3.9s1.3-4.1,3.6-4.1c2.5,0,3.2,2.2,3.2,3.6c0,0.3,0,0.5-0.1,0.6L366.6,488.3L366.6,488.3z M370.6,487.3
		c0-0.9-0.4-2.3-1.9-2.3c-1.4,0-2.1,1.3-2.1,2.3H370.6z"/>
	<path fill="#CCCCCC" d="M380.4,480.7v9.3c0,0.7,0,1.4,0.1,2h-1.3l-0.1-1.3l0,0c-0.4,0.9-1.3,1.5-2.6,1.5c-1.8,0-3.2-1.6-3.2-3.9
		c0-2.5,1.6-4.1,3.4-4.1c1.2,0,2,0.6,2.3,1.2l0,0v-4.6H380.4z M379,487.3c0-0.2,0-0.4-0.1-0.6c-0.2-0.9-1-1.6-2-1.6
		c-1.4,0-2.3,1.3-2.3,2.9c0,1.6,0.8,2.9,2.3,2.9c1,0,1.8-0.6,2.1-1.7c0.1-0.2,0.1-0.4,0.1-0.6L379,487.3L379,487.3z"/>
	<path fill="#CCCCCC" d="M384.3,482.1c0,0.5-0.3,0.9-0.9,0.9c-0.5,0-0.9-0.4-0.9-0.9s0.4-0.9,0.9-0.9S384.3,481.6,384.3,482.1z
		 M382.7,491.9v-7.7h1.4v7.7H382.7z"/>
	<path fill="#CCCCCC" d="M388.1,482v2.2h2v1h-2v4.1c0,1,0.2,1.5,1,1.5c0.4,0,0.6-0.1,0.8-0.1l0.1,1c-0.2,0.1-0.7,0.2-1.3,0.2
		c-0.6,0-1.2-0.2-1.5-0.6c-0.4-0.4-0.6-1.1-0.6-2v-4.2h-1.2v-1h1.2v-1.8L388.1,482z"/>
	<path fill="#CCCCCC" d="M391.5,490.5c0.4,0.2,1.1,0.6,1.8,0.6c1,0,1.5-0.5,1.5-1.1s-0.4-1-1.4-1.4c-1.3-0.5-2.1-1.3-2.1-2.1
		c0-1.3,1-2.2,2.6-2.2c0.8,0,1.4,0.2,1.9,0.5l-0.3,1c-0.3-0.2-0.9-0.5-1.6-0.5c-0.8,0-1.3,0.5-1.3,1c0,0.6,0.5,1,1.4,1.3
		c1.3,0.5,2,1.2,2,2.3c0,1.3-1,2.3-2.9,2.3c-0.9,0-1.6-0.2-2.1-0.6L391.5,490.5z"/>
	<path fill="#CCCCCC" d="M405.5,491.9l-0.1-1h-0.1c-0.4,0.6-1.3,1.1-2.4,1.1c-1.6,0-2.4-1.1-2.4-2.2c0-1.8,1.7-2.9,4.6-2.9v-0.2
		c0-0.6-0.2-1.7-1.7-1.7c-0.7,0-1.4,0.2-2,0.6l-0.3-1c0.6-0.4,1.6-0.7,2.5-0.7c2.4,0,2.9,1.6,2.9,3.2v2.9c0,0.6,0,1.3,0.2,1.8
		L405.5,491.9L405.5,491.9z M405.3,488c-1.5,0-3.2,0.2-3.2,1.7c0,0.9,0.6,1.3,1.3,1.3c1,0,1.7-0.6,1.8-1.3c0.1-0.2,0.1-0.3,0.1-0.5
		V488z"/>
	<path fill="#CCCCCC" d="M408.9,486.3c0-0.8,0-1.4-0.1-2.1h1.3l0.1,1.3l0,0c0.4-0.7,1.3-1.4,2.5-1.4c1,0,2.7,0.6,2.7,3.2v4.6H414
		v-4.4c0-1.3-0.5-2.3-1.7-2.3c-1,0-1.7,0.6-1.9,1.4c-0.1,0.2-0.1,0.4-0.1,0.6v4.6h-1.4L408.9,486.3L408.9,486.3z"/>
	<path fill="#CCCCCC" d="M424.3,480.7v9.3c0,0.7,0,1.4,0.1,2h-1.3l-0.1-1.3l0,0c-0.4,0.9-1.3,1.5-2.6,1.5c-1.8,0-3.2-1.6-3.2-3.9
		c0-2.5,1.6-4.1,3.4-4.1c1.2,0,2,0.6,2.3,1.2l0,0v-4.6H424.3z M422.9,487.3c0-0.2,0-0.4-0.1-0.6c-0.2-0.9-1-1.6-2-1.6
		c-1.4,0-2.3,1.3-2.3,2.9c0,1.6,0.8,2.9,2.3,2.9c1,0,1.8-0.6,2.1-1.7c0.1-0.2,0.1-0.4,0.1-0.6L422.9,487.3L422.9,487.3z"/>
	<path fill="#CCCCCC" d="M434.2,491.9l-0.1-1h-0.1c-0.4,0.6-1.3,1.1-2.4,1.1c-1.6,0-2.4-1.1-2.4-2.2c0-1.8,1.7-2.9,4.6-2.9v-0.2
		c0-0.6-0.2-1.7-1.7-1.7c-0.7,0-1.4,0.2-2,0.6l-0.3-1c0.6-0.4,1.6-0.7,2.5-0.7c2.4,0,2.9,1.6,2.9,3.2v2.9c0,0.6,0,1.3,0.2,1.8
		L434.2,491.9L434.2,491.9z M434,488c-1.5,0-3.2,0.2-3.2,1.7c0,0.9,0.6,1.3,1.3,1.3c1,0,1.7-0.6,1.8-1.3c0.1-0.2,0.1-0.3,0.1-0.5
		V488z"/>
	<path fill="#CCCCCC" d="M443.1,491.6c-0.4,0.2-1.2,0.5-2.2,0.5c-2.3,0-3.8-1.6-3.8-3.9c0-2.4,1.6-4,4.1-4c0.8,0,1.6,0.2,1.9,0.4
		l-0.3,1.1c-0.3-0.2-0.9-0.4-1.6-0.4c-1.7,0-2.7,1.3-2.7,2.9c0,1.7,1.1,2.9,2.7,2.9c0.8,0,1.3-0.2,1.7-0.4L443.1,491.6z"/>
	<path fill="#CCCCCC" d="M450.1,491.6c-0.4,0.2-1.2,0.5-2.2,0.5c-2.3,0-3.8-1.6-3.8-3.9c0-2.4,1.6-4,4.1-4c0.8,0,1.6,0.2,1.9,0.4
		l-0.3,1.1c-0.3-0.2-0.9-0.4-1.6-0.4c-1.7,0-2.7,1.3-2.7,2.9c0,1.7,1.1,2.9,2.7,2.9c0.8,0,1.3-0.2,1.7-0.4L450.1,491.6z"/>
	<path fill="#CCCCCC" d="M452.4,488.3c0,1.9,1.3,2.7,2.6,2.7c1,0,1.6-0.2,2.1-0.4l0.2,1c-0.5,0.2-1.3,0.5-2.5,0.5
		c-2.4,0-3.8-1.6-3.8-3.9s1.3-4.1,3.6-4.1c2.5,0,3.2,2.2,3.2,3.6c0,0.3,0,0.5-0.1,0.6L452.4,488.3L452.4,488.3z M456.5,487.3
		c0-0.9-0.4-2.3-1.9-2.3c-1.4,0-2.1,1.3-2.1,2.3H456.5z"/>
	<path fill="#CCCCCC" d="M459.4,490.5c0.4,0.2,1.1,0.6,1.8,0.6c1,0,1.5-0.5,1.5-1.1s-0.4-1-1.4-1.4c-1.3-0.5-2.1-1.3-2.1-2.1
		c0-1.3,1-2.2,2.6-2.2c0.8,0,1.4,0.2,1.9,0.5l-0.3,1c-0.3-0.2-0.9-0.5-1.6-0.5c-0.8,0-1.3,0.5-1.3,1c0,0.6,0.5,1,1.4,1.3
		c1.3,0.5,2,1.2,2,2.3c0,1.3-1,2.3-2.9,2.3c-0.9,0-1.6-0.2-2.1-0.6L459.4,490.5z"/>
	<path fill="#CCCCCC" d="M465.6,490.5c0.4,0.2,1.1,0.6,1.8,0.6c1,0,1.5-0.5,1.5-1.1s-0.4-1-1.4-1.4c-1.3-0.5-2.1-1.3-2.1-2.1
		c0-1.3,1-2.2,2.6-2.2c0.8,0,1.4,0.2,1.9,0.5l-0.3,1c-0.3-0.2-0.9-0.5-1.6-0.5c-0.8,0-1.3,0.5-1.3,1c0,0.6,0.5,1,1.4,1.3
		c1.3,0.5,2,1.2,2,2.3c0,1.3-1,2.3-2.9,2.3c-0.9,0-1.6-0.2-2.1-0.6L465.6,490.5z"/>
	<path fill="#CCCCCC" d="M477.2,482v2.2h2v1h-2v4.1c0,1,0.2,1.5,1,1.5c0.4,0,0.6-0.1,0.8-0.1l0.1,1c-0.2,0.1-0.7,0.2-1.3,0.2
		c-0.6,0-1.2-0.2-1.5-0.6c-0.4-0.4-0.6-1.1-0.6-2v-4.2h-1.2v-1h1.2v-1.8L477.2,482z"/>
	<path fill="#CCCCCC" d="M487.5,488c0,2.9-2,4-3.8,4c-2.1,0-3.6-1.5-3.6-4c0-2.5,1.7-4,3.8-4C486,484.1,487.5,485.7,487.5,488z
		 M481.5,488.1c0,1.7,1,2.9,2.3,2.9s2.3-1.3,2.3-3c0-1.3-0.6-2.9-2.3-2.9C482.2,485.1,481.5,486.6,481.5,488.1z"/>
	<path fill="#CCCCCC" d="M492.5,490.5c0.4,0.2,1.1,0.6,1.8,0.6c1,0,1.5-0.5,1.5-1.1s-0.4-1-1.4-1.4c-1.3-0.5-2.1-1.3-2.1-2.1
		c0-1.3,1-2.2,2.6-2.2c0.8,0,1.4,0.2,1.9,0.5l-0.3,1c-0.3-0.2-0.9-0.5-1.6-0.5c-0.8,0-1.3,0.5-1.3,1c0,0.6,0.5,1,1.4,1.3
		c1.3,0.5,2,1.2,2,2.3c0,1.3-1,2.3-2.9,2.3c-0.9,0-1.6-0.2-2.1-0.6L492.5,490.5z"/>
	<path fill="#CCCCCC" d="M505.8,488c0,2.9-2,4-3.8,4c-2.1,0-3.6-1.5-3.6-4c0-2.5,1.7-4,3.8-4C504.4,484.1,505.8,485.7,505.8,488z
		 M499.8,488.1c0,1.7,1,2.9,2.3,2.9s2.3-1.3,2.3-3c0-1.3-0.6-2.9-2.3-2.9C500.5,485.1,499.8,486.6,499.8,488.1z"/>
	<path fill="#CCCCCC" d="M513.1,491.6c-0.4,0.2-1.2,0.5-2.2,0.5c-2.3,0-3.8-1.6-3.8-3.9c0-2.4,1.6-4,4.1-4c0.8,0,1.6,0.2,1.9,0.4
		l-0.3,1.1c-0.3-0.2-0.9-0.4-1.6-0.4c-1.7,0-2.7,1.3-2.7,2.9c0,1.7,1.1,2.9,2.7,2.9c0.8,0,1.3-0.2,1.7-0.4L513.1,491.6z"/>
	<path fill="#CCCCCC" d="M516.3,482.1c0,0.5-0.3,0.9-0.9,0.9c-0.5,0-0.9-0.4-0.9-0.9s0.4-0.9,0.9-0.9
		C516,481.2,516.3,481.6,516.3,482.1z M514.7,491.9v-7.7h1.4v7.7H514.7z"/>
	<path fill="#CCCCCC" d="M522.7,491.9l-0.1-1h-0.1c-0.4,0.6-1.3,1.1-2.4,1.1c-1.6,0-2.4-1.1-2.4-2.2c0-1.8,1.7-2.9,4.6-2.9v-0.2
		c0-0.6-0.2-1.7-1.7-1.7c-0.7,0-1.4,0.2-2,0.6l-0.3-1c0.6-0.4,1.6-0.7,2.5-0.7c2.4,0,2.9,1.6,2.9,3.2v2.9c0,0.6,0,1.3,0.2,1.8
		L522.7,491.9L522.7,491.9z M522.5,488c-1.5,0-3.2,0.2-3.2,1.7c0,0.9,0.6,1.3,1.3,1.3c1,0,1.7-0.6,1.8-1.3c0.1-0.2,0.1-0.3,0.1-0.5
		V488z"/>
	<path fill="#CCCCCC" d="M526,480.7h1.4v11.2H526V480.7z"/>
	<path fill="#CCCCCC" d="M109.5,505.3c0-0.8,0-1.4-0.1-2.1h1.3l0.1,1.3l0,0c0.4-0.7,1.3-1.4,2.5-1.4c1,0,2.7,0.6,2.7,3.2v4.6h-1.4
		v-4.4c0-1.3-0.5-2.3-1.7-2.3c-1,0-1.7,0.6-1.9,1.4c-0.1,0.2-0.1,0.4-0.1,0.6v4.6h-1.4L109.5,505.3L109.5,505.3L109.5,505.3z"/>
	<path fill="#CCCCCC" d="M119,507.3c0,1.9,1.3,2.7,2.6,2.7c1,0,1.6-0.2,2.1-0.4l0.2,1c-0.5,0.2-1.3,0.5-2.5,0.5
		c-2.4,0-3.8-1.6-3.8-3.9s1.3-4.1,3.6-4.1c2.5,0,3.2,2.2,3.2,3.6c0,0.3,0,0.5-0.1,0.6L119,507.3L119,507.3z M123.1,506.3
		c0-0.9-0.4-2.3-1.9-2.3c-1.4,0-2.1,1.3-2.1,2.3H123.1z"/>
	<path fill="#CCCCCC" d="M127.9,501v2.2h2v1h-2v4.1c0,1,0.2,1.5,1,1.5c0.4,0,0.6-0.1,0.8-0.1l0.1,1c-0.2,0.1-0.7,0.2-1.3,0.2
		c-0.6,0-1.2-0.2-1.5-0.6c-0.4-0.4-0.6-1.1-0.6-2v-4.2h-1.2v-1h1.2v-1.8L127.9,501z"/>
	<path fill="#CCCCCC" d="M132.2,503.3l1,3.9c0.2,0.9,0.4,1.7,0.6,2.5h0.1c0.2-0.8,0.4-1.6,0.7-2.5l1.3-3.9h1.2l1.2,3.8
		c0.3,1,0.5,1.7,0.7,2.5h0.1c0.2-0.8,0.3-1.6,0.6-2.5l1.1-3.9h1.3l-2.5,7.7h-1.3l-1.2-3.6c-0.2-0.9-0.5-1.6-0.7-2.5l0,0
		c-0.2,1-0.4,1.7-0.7,2.5l-1.3,3.6h-1.3l-2.3-7.7H132.2z"/>
	<path fill="#CCCCCC" d="M150.1,507c0,2.9-2,4-3.8,4c-2.1,0-3.6-1.5-3.6-4c0-2.5,1.7-4,3.8-4C148.6,503.1,150.1,504.7,150.1,507z
		 M144,507.1c0,1.7,1,2.9,2.3,2.9c1.3,0,2.3-1.3,2.3-3c0-1.3-0.6-2.9-2.3-2.9C144.7,504.1,144,505.6,144,507.1z"/>
	<path fill="#CCCCCC" d="M151.8,505.6c0-0.9,0-1.7-0.1-2.4h1.2l0.1,1.5h0.1c0.3-1,1.2-1.7,2.1-1.7c0.2,0,0.2,0,0.4,0.1v1.3
		c-0.2,0-0.3-0.1-0.5-0.1c-1,0-1.7,0.7-1.9,1.8c0,0.2-0.1,0.4-0.1,0.6v4.1h-1.3V505.6z"/>
	<path fill="#CCCCCC" d="M158.4,506.7L158.4,506.7c0.2-0.2,0.5-0.6,0.7-0.9l2.2-2.6h1.7l-2.9,3.2l3.4,4.5h-1.7l-2.6-3.6l-0.7,0.8
		v2.9h-1.3v-11.2h1.3L158.4,506.7L158.4,506.7z"/>
	<path fill="#CCCCCC" d="M166.3,501.1c0,0.5-0.3,0.9-0.9,0.9c-0.5,0-0.9-0.4-0.9-0.9s0.4-0.9,0.9-0.9
		C166,500.2,166.3,500.6,166.3,501.1z M164.7,510.9v-7.7h1.4v7.7H164.7z"/>
	<path fill="#CCCCCC" d="M168.4,505.3c0-0.8,0-1.4-0.1-2.1h1.3l0.1,1.3l0,0c0.4-0.7,1.3-1.4,2.5-1.4c1,0,2.7,0.6,2.7,3.2v4.6h-1.4
		v-4.4c0-1.3-0.5-2.3-1.7-2.3c-1,0-1.7,0.6-1.9,1.4c-0.1,0.2-0.1,0.4-0.1,0.6v4.6h-1.4L168.4,505.3L168.4,505.3L168.4,505.3z"/>
	<path fill="#CCCCCC" d="M183.8,503.3c0,0.6-0.1,1.2-0.1,2.1v4.4c0,1.7-0.3,2.9-1.1,3.5c-0.7,0.7-1.8,1-2.8,1c-1,0-1.9-0.2-2.5-0.6
		l0.3-1c0.5,0.3,1.3,0.6,2.2,0.6c1.4,0,2.5-0.7,2.5-2.7v-0.9l0,0c-0.4,0.7-1.3,1.3-2.5,1.3c-1.9,0-3.2-1.6-3.2-3.7
		c0-2.6,1.7-4,3.5-4c1.3,0,2.1,0.7,2.4,1.3l0,0l0.1-1.2L183.8,503.3L183.8,503.3z M182.4,506.3c0-0.2,0-0.5-0.1-0.6
		c-0.2-0.8-1-1.5-2-1.5c-1.3,0-2.3,1.1-2.3,2.9c0,1.5,0.8,2.8,2.3,2.8c0.9,0,1.7-0.6,1.9-1.4c0.1-0.2,0.1-0.5,0.1-0.7L182.4,506.3
		L182.4,506.3L182.4,506.3z"/>
	<path fill="#CCCCCC" d="M189.4,499.7h1.4v11.2h-1.4V499.7z"/>
	<path fill="#CCCCCC" d="M194.7,501.1c0,0.5-0.3,0.9-0.9,0.9c-0.5,0-0.9-0.4-0.9-0.9s0.4-0.9,0.9-0.9
		C194.4,500.2,194.7,500.6,194.7,501.1z M193.2,510.9v-7.7h1.4v7.7H193.2z"/>
	<path fill="#CCCCCC" d="M196.9,505.3c0-0.8,0-1.4-0.1-2.1h1.3l0.1,1.3l0,0c0.4-0.7,1.3-1.4,2.5-1.4c1,0,2.7,0.6,2.7,3.2v4.6H202
		v-4.4c0-1.3-0.5-2.3-1.7-2.3c-1,0-1.7,0.6-1.9,1.4c-0.1,0.2-0.1,0.4-0.1,0.6v4.6h-1.4V505.3z"/>
	<path fill="#CCCCCC" d="M207.1,506.7L207.1,506.7c0.2-0.2,0.5-0.6,0.7-0.9l2.2-2.6h1.7l-2.9,3.2l3.4,4.5h-1.7l-2.6-3.6l-0.7,0.8
		v2.9h-1.3v-11.2h1.3L207.1,506.7L207.1,506.7z"/>
	<path fill="#CCCCCC" d="M213,509.5c0.4,0.2,1.1,0.6,1.8,0.6c1,0,1.5-0.5,1.5-1.1s-0.4-1-1.4-1.4c-1.3-0.5-2.1-1.3-2.1-2.1
		c0-1.3,1-2.2,2.6-2.2c0.8,0,1.4,0.2,1.9,0.5l-0.3,1c-0.3-0.2-0.9-0.5-1.6-0.5c-0.8,0-1.3,0.5-1.3,1c0,0.6,0.5,1,1.4,1.3
		c1.3,0.5,2,1.2,2,2.3c0,1.3-1,2.3-2.9,2.3c-0.9,0-1.6-0.2-2.1-0.6L213,509.5z"/>
	<path fill="#CCCCCC" d="M218.9,510.1c0-0.6,0.4-1,1-1c0.6,0,1,0.4,1,1c0,0.6-0.4,1-1,1C219.3,511.1,218.9,510.6,218.9,510.1z"/>
</g>
<rect x="23.4" y="544.8" opacity="0.1" fill="#FF00FF" enable-background="new    " width="9.4" height="77.7"/>
<path fill="#F2F2F2" d="M83.1,541.5H23.4c-1.7,0-3.2,1.4-3.2,3.2v85.1c0,1.7,1.4,3.2,3.2,3.2h59.6c1.7,0,3.2-1.4,3.2-3.2v-85.1
	C86.2,542.9,84.8,541.5,83.1,541.5z M56.9,629.6h-7.2c-1.1,0-2-0.9-2-2c0-1.1,0.9-2,2-2h7.2c1.1,0,2,0.9,2,2
	C58.8,628.7,58,629.6,56.9,629.6z M83.1,622.5H23.4v-77.7h59.6V622.5z"/>
<g>
	<circle opacity="0.3" fill="#FF00FF" enable-background="new    " cx="29" cy="583.3" r="5.1"/>
	<path fill="#FF00FF" d="M63.7,607.2c-0.1-0.1-0.1-0.2-0.2-0.2c1-1,1.3-2.2,0.7-3.3L57,590c-0.7-1.3-2.6-1.7-4.2-0.9l-1.5,0.8
		l-3.2-1c-1-0.2-2,0.2-2.3,1.2L45,593l-2.5-0.8c-1-0.2-2,0.2-2.3,1.2l-1,2.9l-6.8-12.8c-0.8-1.5-2.6-2.1-4.1-1.3
		c-1.5,0.8-2.1,2.6-1.3,4.1l8.2,15.4l0,0l7.2,13.6c0.6,1,1.8,1.5,3.2,1.3c0.1,0.1,0.1,0.2,0.2,0.2c1.3,2.5,3.3,4.1,4.4,3.6l14-7.4
		C65.2,612.2,65,609.8,63.7,607.2z"/>
</g>
<path fill="none" stroke="#FF00FF" stroke-width="2" stroke-miterlimit="10" d="M21.8,653.2h91.1c4.8,0,8.7,4.4,8.7,9.8v87.3
	c0,5.4-3.9,9.8-8.7,9.8H21.8c-4.8,0-8.7-4.4-8.7-9.8V663C13.1,657.5,17,653.2,21.8,653.2z"/>
<rect x="73.6" y="663.6" opacity="0.1" fill="#FF00FF" enable-background="new    " width="9.4" height="77.7"/>
<path fill="#F2F2F2" d="M83.1,660.3H23.4c-1.7,0-3.2,1.4-3.2,3.2v85.1c0,1.7,1.4,3.2,3.2,3.2h59.6c1.7,0,3.2-1.4,3.2-3.2v-85.1
	C86.2,661.7,84.8,660.3,83.1,660.3z M56.9,748.4h-7.2c-1.1,0-2-0.9-2-2c0-1.1,0.9-2,2-2h7.2c1.1,0,2,0.9,2,2
	C58.8,747.5,58,748.4,56.9,748.4z M83.1,741.3H23.4v-77.7h59.6V741.3z"/>
<g>
	<circle opacity="0.3" fill="#FF00FF" enable-background="new    " cx="79.2" cy="702.1" r="5.1"/>
	<path fill="#FF00FF" d="M113.9,726c-0.1-0.1-0.1-0.2-0.2-0.2c1-1,1.3-2.2,0.7-3.3l-7.2-13.6c-0.7-1.3-2.6-1.7-4.2-0.9l-1.5,0.8
		l-3.2-1c-1-0.2-2,0.2-2.3,1.2l-0.9,2.9l-2.5-0.8c-1-0.2-2,0.2-2.3,1.2l-1,2.9l-6.8-12.8c-0.8-1.5-2.6-2.1-4.1-1.3
		c-1.5,0.8-2.1,2.6-1.3,4.1l8.2,15.4l0,0l7.2,13.6c0.6,1,1.8,1.5,3.2,1.3c0.1,0.1,0.1,0.2,0.2,0.2c1.3,2.5,3.3,4.1,4.4,3.6l14-7.4
		C115.5,731,115.3,728.6,113.9,726z"/>
</g>
<g>
	<path fill="#CCCCCC" d="M111.3,582.4h-3.2v-1.2h7.9v1.2h-3.2v9.5h-1.4L111.3,582.4L111.3,582.4z"/>
	<path fill="#CCCCCC" d="M122.9,588c0,2.9-2,4-3.8,4c-2.1,0-3.6-1.5-3.6-4c0-2.5,1.7-4,3.8-4C121.5,584,122.9,585.6,122.9,588z
		 M116.9,588.1c0,1.7,1,2.9,2.3,2.9s2.3-1.3,2.3-3c0-1.3-0.6-2.9-2.3-2.9C117.6,585.1,116.9,586.7,116.9,588.1z"/>
	<path fill="#CCCCCC" d="M131.1,589.8c0,0.8,0,1.5,0.1,2.1H130l-0.1-1.3l0,0c-0.4,0.6-1.2,1.4-2.5,1.4c-1.2,0-2.6-0.6-2.6-3.3v-4.5
		h1.4v4.3c0,1.4,0.5,2.5,1.7,2.5c1,0,1.6-0.6,1.8-1.3c0.1-0.2,0.2-0.5,0.2-0.7v-4.7h1.4v5.5H131.1z"/>
	<path fill="#CCCCCC" d="M138.9,591.6c-0.4,0.2-1.2,0.5-2.2,0.5c-2.3,0-3.8-1.6-3.8-3.9c0-2.4,1.6-4,4.1-4c0.8,0,1.6,0.2,1.9,0.4
		l-0.3,1.1c-0.3-0.2-0.9-0.4-1.6-0.4c-1.7,0-2.7,1.3-2.7,2.9c0,1.7,1.1,2.9,2.7,2.9c0.8,0,1.3-0.2,1.7-0.4L138.9,591.6z"/>
	<path fill="#CCCCCC" d="M140.5,580.6h1.4v4.8l0,0c0.2-0.4,0.6-0.7,1-1c0.4-0.2,0.9-0.4,1.4-0.4c1,0,2.7,0.6,2.7,3.2v4.6h-1.4v-4.4
		c0-1.3-0.5-2.3-1.7-2.3c-0.9,0-1.6,0.6-1.9,1.4c-0.1,0.2-0.1,0.4-0.1,0.6v4.6h-1.4L140.5,580.6L140.5,580.6z"/>
	<path fill="#CCCCCC" d="M154.3,582.1v2.2h2v1h-2v4.1c0,1,0.2,1.5,1,1.5c0.4,0,0.6-0.1,0.8-0.1l0.1,1c-0.2,0.1-0.7,0.2-1.3,0.2
		c-0.6,0-1.2-0.2-1.5-0.6c-0.4-0.4-0.6-1.1-0.6-2v-4.2h-1.2v-1h1.2v-1.8L154.3,582.1z"/>
	<path fill="#CCCCCC" d="M157.9,580.6h1.4v4.8l0,0c0.2-0.4,0.6-0.7,1-1c0.4-0.2,0.9-0.4,1.4-0.4c1,0,2.7,0.6,2.7,3.2v4.6h-1.4v-4.4
		c0-1.3-0.5-2.3-1.7-2.3c-0.9,0-1.6,0.6-1.9,1.4c-0.1,0.2-0.1,0.4-0.1,0.6v4.6h-1.4L157.9,580.6L157.9,580.6z"/>
	<path fill="#CCCCCC" d="M167.5,588.3c0,1.9,1.3,2.7,2.6,2.7c1,0,1.6-0.2,2.1-0.4l0.2,1c-0.5,0.2-1.3,0.5-2.5,0.5
		c-2.4,0-3.8-1.6-3.8-3.9c0-2.3,1.3-4.1,3.6-4.1c2.5,0,3.2,2.2,3.2,3.6c0,0.3,0,0.5-0.1,0.6L167.5,588.3L167.5,588.3z M171.5,587.3
		c0-0.9-0.4-2.3-1.9-2.3c-1.4,0-2.1,1.3-2.1,2.3H171.5z"/>
	<path fill="#CCCCCC" d="M178,580.6h1.4v11.2H178V580.6z"/>
	<path fill="#CCCCCC" d="M182.5,588.3c0,1.9,1.3,2.7,2.6,2.7c1,0,1.6-0.2,2.1-0.4l0.2,1c-0.5,0.2-1.3,0.5-2.5,0.5
		c-2.4,0-3.8-1.6-3.8-3.9c0-2.3,1.3-4.1,3.6-4.1c2.5,0,3.2,2.2,3.2,3.6c0,0.3,0,0.5-0.1,0.6L182.5,588.3L182.5,588.3z M186.6,587.3
		c0-0.9-0.4-2.3-1.9-2.3c-1.4,0-2.1,1.3-2.1,2.3H186.6z"/>
	<path fill="#CCCCCC" d="M189.8,591.9v-6.6h-1.1v-1h1.1v-0.4c0-1.1,0.2-2.1,0.9-2.7c0.6-0.5,1.2-0.7,1.9-0.7c0.5,0,1,0.1,1.2,0.2
		l-0.2,1.1c-0.2-0.1-0.5-0.2-0.9-0.2c-1.2,0-1.5,1-1.5,2.2v0.4h1.8v1h-1.8v6.6H189.8L189.8,591.9z"/>
	<path fill="#CCCCCC" d="M196.2,582.1v2.2h2v1h-2v4.1c0,1,0.2,1.5,1,1.5c0.4,0,0.6-0.1,0.8-0.1l0.1,1c-0.2,0.1-0.7,0.2-1.3,0.2
		c-0.6,0-1.2-0.2-1.5-0.6c-0.4-0.4-0.6-1.1-0.6-2v-4.2h-1.2v-1h1.2v-1.8L196.2,582.1z"/>
	<path fill="#CCCCCC" d="M202.9,590.5c0.4,0.2,1.1,0.6,1.8,0.6c1,0,1.5-0.5,1.5-1.1s-0.4-1-1.4-1.4c-1.3-0.5-2.1-1.3-2.1-2.1
		c0-1.3,1-2.2,2.6-2.2c0.8,0,1.4,0.2,1.9,0.5l-0.3,1c-0.3-0.2-0.9-0.5-1.6-0.5c-0.8,0-1.3,0.5-1.3,1c0,0.6,0.5,1,1.4,1.3
		c1.3,0.5,2,1.2,2,2.3c0,1.3-1,2.3-2.9,2.3c-0.9,0-1.6-0.2-2.1-0.6L202.9,590.5z"/>
	<path fill="#CCCCCC" d="M210.9,582.1c0,0.5-0.3,0.9-0.9,0.9c-0.5,0-0.9-0.4-0.9-0.9s0.4-0.9,0.9-0.9
		C210.6,581.2,210.9,581.6,210.9,582.1z M209.3,591.9v-7.7h1.4v7.7H209.3z"/>
	<path fill="#CCCCCC" d="M219.7,580.6v9.3c0,0.7,0,1.4,0.1,2h-1.3l-0.1-1.3l0,0c-0.4,0.9-1.3,1.5-2.6,1.5c-1.8,0-3.2-1.6-3.2-3.9
		c0-2.5,1.6-4.1,3.4-4.1c1.2,0,2,0.6,2.3,1.2l0,0v-4.6H219.7z M218.3,587.4c0-0.2,0-0.4-0.1-0.6c-0.2-0.9-1-1.6-2-1.6
		c-1.4,0-2.3,1.3-2.3,2.9c0,1.6,0.8,2.9,2.3,2.9c1,0,1.8-0.6,2.1-1.7c0.1-0.2,0.1-0.4,0.1-0.6L218.3,587.4L218.3,587.4z"/>
	<path fill="#CCCCCC" d="M222.8,588.3c0,1.9,1.3,2.7,2.6,2.7c1,0,1.6-0.2,2.1-0.4l0.2,1c-0.5,0.2-1.3,0.5-2.5,0.5
		c-2.4,0-3.8-1.6-3.8-3.9c0-2.3,1.3-4.1,3.6-4.1c2.5,0,3.2,2.2,3.2,3.6c0,0.3,0,0.5-0.1,0.6L222.8,588.3L222.8,588.3z M226.8,587.3
		c0-0.9-0.4-2.3-1.9-2.3c-1.4,0-2.1,1.3-2.1,2.3H226.8z"/>
	<path fill="#CCCCCC" d="M240.2,588c0,2.9-2,4-3.8,4c-2.1,0-3.6-1.5-3.6-4c0-2.5,1.7-4,3.8-4S240.2,585.6,240.2,588z M234.1,588.1
		c0,1.7,1,2.9,2.3,2.9c1.3,0,2.3-1.3,2.3-3c0-1.3-0.6-2.9-2.3-2.9C234.8,585.1,234.1,586.7,234.1,588.1z"/>
	<path fill="#CCCCCC" d="M242.1,591.9v-6.6H241v-1h1.1v-0.4c0-1.1,0.2-2.1,0.9-2.7c0.6-0.5,1.2-0.7,1.9-0.7c0.5,0,1,0.1,1.2,0.2
		l-0.2,1.1c-0.2-0.1-0.5-0.2-0.9-0.2c-1.2,0-1.5,1-1.5,2.2v0.4h1.8v1h-1.8v6.6H242.1L242.1,591.9z"/>
	<path fill="#CCCCCC" d="M251.6,582.1v2.2h2v1h-2v4.1c0,1,0.2,1.5,1,1.5c0.4,0,0.6-0.1,0.8-0.1l0.1,1c-0.2,0.1-0.7,0.2-1.3,0.2
		c-0.6,0-1.2-0.2-1.5-0.6c-0.4-0.4-0.6-1.1-0.6-2v-4.2H249v-1h1.2v-1.8L251.6,582.1z"/>
	<path fill="#CCCCCC" d="M255.2,580.6h1.4v4.8l0,0c0.2-0.4,0.6-0.7,1-1c0.4-0.2,0.9-0.4,1.4-0.4c1,0,2.7,0.6,2.7,3.2v4.6h-1.4v-4.4
		c0-1.3-0.5-2.3-1.7-2.3c-0.9,0-1.6,0.6-1.9,1.4c-0.1,0.2-0.1,0.4-0.1,0.6v4.6h-1.4L255.2,580.6L255.2,580.6z"/>
	<path fill="#CCCCCC" d="M264.8,588.3c0,1.9,1.3,2.7,2.6,2.7c1,0,1.6-0.2,2.1-0.4l0.2,1c-0.5,0.2-1.3,0.5-2.5,0.5
		c-2.4,0-3.8-1.6-3.8-3.9c0-2.3,1.3-4.1,3.6-4.1c2.5,0,3.2,2.2,3.2,3.6c0,0.3,0,0.5-0.1,0.6L264.8,588.3L264.8,588.3z M268.9,587.3
		c0-0.9-0.4-2.3-1.9-2.3c-1.4,0-2.1,1.3-2.1,2.3H268.9z"/>
	<path fill="#CCCCCC" d="M275.1,590.5c0.4,0.2,1.1,0.6,1.8,0.6c1,0,1.5-0.5,1.5-1.1s-0.4-1-1.4-1.4c-1.3-0.5-2.1-1.3-2.1-2.1
		c0-1.3,1-2.2,2.6-2.2c0.8,0,1.4,0.2,1.9,0.5l-0.3,1c-0.3-0.2-0.9-0.5-1.6-0.5c-0.8,0-1.3,0.5-1.3,1c0,0.6,0.5,1,1.4,1.3
		c1.3,0.5,2,1.2,2,2.3c0,1.3-1,2.3-2.9,2.3c-0.9,0-1.6-0.2-2.1-0.6L275.1,590.5z"/>
	<path fill="#CCCCCC" d="M287,591.6c-0.4,0.2-1.2,0.5-2.2,0.5c-2.3,0-3.8-1.6-3.8-3.9c0-2.4,1.6-4,4.1-4c0.8,0,1.6,0.2,1.9,0.4
		l-0.3,1.1c-0.3-0.2-0.9-0.4-1.6-0.4c-1.7,0-2.7,1.3-2.7,2.9c0,1.7,1.1,2.9,2.7,2.9c0.8,0,1.3-0.2,1.7-0.4L287,591.6z"/>
	<path fill="#CCCCCC" d="M288.7,586.7c0-0.9,0-1.7-0.1-2.4h1.2l0.1,1.5h0.1c0.3-1,1.2-1.7,2.1-1.7c0.2,0,0.2,0,0.4,0.1v1.3
		c-0.2,0-0.3-0.1-0.5-0.1c-1,0-1.7,0.7-1.9,1.8c0,0.2-0.1,0.4-0.1,0.6v4.1h-1.3V586.7z"/>
	<path fill="#CCCCCC" d="M294.5,588.3c0,1.9,1.3,2.7,2.6,2.7c1,0,1.6-0.2,2.1-0.4l0.2,1c-0.5,0.2-1.3,0.5-2.5,0.5
		c-2.4,0-3.8-1.6-3.8-3.9c0-2.3,1.3-4.1,3.6-4.1c2.5,0,3.2,2.2,3.2,3.6c0,0.3,0,0.5-0.1,0.6L294.5,588.3L294.5,588.3z M298.6,587.3
		c0-0.9-0.4-2.3-1.9-2.3c-1.4,0-2.1,1.3-2.1,2.3H298.6z"/>
	<path fill="#CCCCCC" d="M302.4,588.3c0,1.9,1.3,2.7,2.6,2.7c1,0,1.6-0.2,2.1-0.4l0.2,1c-0.5,0.2-1.3,0.5-2.5,0.5
		c-2.4,0-3.8-1.6-3.8-3.9c0-2.3,1.3-4.1,3.6-4.1c2.5,0,3.2,2.2,3.2,3.6c0,0.3,0,0.5-0.1,0.6L302.4,588.3L302.4,588.3z M306.5,587.3
		c0-0.9-0.4-2.3-1.9-2.3c-1.4,0-2.1,1.3-2.1,2.3H306.5z"/>
	<path fill="#CCCCCC" d="M309.6,586.3c0-0.8,0-1.4-0.1-2.1h1.3l0.1,1.3l0,0c0.4-0.7,1.3-1.4,2.5-1.4c1,0,2.7,0.6,2.7,3.2v4.6h-1.4
		v-4.4c0-1.3-0.5-2.3-1.7-2.3c-1,0-1.7,0.6-1.9,1.4c-0.1,0.2-0.1,0.4-0.1,0.6v4.6h-1.4L309.6,586.3L309.6,586.3z"/>
	<path fill="#CCCCCC" d="M323.4,582.1v2.2h2v1h-2v4.1c0,1,0.2,1.5,1,1.5c0.4,0,0.6-0.1,0.8-0.1l0.1,1c-0.2,0.1-0.7,0.2-1.3,0.2
		c-0.6,0-1.2-0.2-1.5-0.6c-0.4-0.4-0.6-1.1-0.6-2v-4.2h-1.1v-1h1.2v-1.8L323.4,582.1z"/>
	<path fill="#CCCCCC" d="M333.8,588c0,2.9-2,4-3.8,4c-2.1,0-3.6-1.5-3.6-4c0-2.5,1.7-4,3.8-4C332.3,584,333.8,585.6,333.8,588z
		 M327.7,588.1c0,1.7,1,2.9,2.3,2.9c1.3,0,2.3-1.3,2.3-3c0-1.3-0.6-2.9-2.3-2.9S327.7,586.7,327.7,588.1z"/>
	<path fill="#CCCCCC" d="M345.5,584.2c0,0.6-0.1,1.2-0.1,2.1v4.4c0,1.7-0.3,2.9-1.1,3.5c-0.7,0.7-1.8,1-2.8,1c-1,0-1.9-0.2-2.5-0.6
		l0.3-1c0.5,0.3,1.3,0.6,2.2,0.6c1.4,0,2.5-0.7,2.5-2.7v-0.9l0,0c-0.4,0.7-1.3,1.3-2.5,1.3c-1.9,0-3.2-1.6-3.2-3.7
		c0-2.6,1.7-4,3.5-4c1.3,0,2.1,0.7,2.4,1.3l0,0l0.1-1.2L345.5,584.2L345.5,584.2z M344,587.3c0-0.2,0-0.5-0.1-0.6
		c-0.2-0.8-1-1.5-2-1.5c-1.3,0-2.3,1.1-2.3,2.9c0,1.5,0.8,2.8,2.3,2.8c0.9,0,1.7-0.6,1.9-1.4c0.1-0.2,0.1-0.5,0.1-0.7L344,587.3
		L344,587.3z"/>
	<path fill="#CCCCCC" d="M354.7,588c0,2.9-2,4-3.8,4c-2.1,0-3.6-1.5-3.6-4c0-2.5,1.7-4,3.8-4S354.7,585.6,354.7,588z M348.6,588.1
		c0,1.7,1,2.9,2.3,2.9c1.3,0,2.3-1.3,2.3-3c0-1.3-0.6-2.9-2.3-2.9C349.3,585.1,348.6,586.7,348.6,588.1z"/>
	<path fill="#CCCCCC" d="M359.7,591.9c0-0.6,0.1-1.3,0.1-2v-9.3h1.3v4.8l0,0c0.5-0.9,1.3-1.4,2.6-1.4c1.9,0,3.2,1.6,3.2,3.9
		c0,2.8-1.7,4.1-3.4,4.1c-1.1,0-2-0.4-2.5-1.4H361l-0.1,1.3L359.7,591.9L359.7,591.9z M361.2,588.8c0,0.2,0,0.3,0.1,0.5
		c0.2,1,1.1,1.7,2.1,1.7c1.4,0,2.3-1.2,2.3-2.9c0-1.5-0.8-2.9-2.3-2.9c-1,0-1.8,0.6-2.1,1.7c0,0.2-0.1,0.3-0.1,0.6L361.2,588.8
		L361.2,588.8z"/>
	<path fill="#CCCCCC" d="M373.1,591.9l-0.1-1h-0.1c-0.4,0.6-1.3,1.1-2.4,1.1c-1.6,0-2.4-1.1-2.4-2.2c0-1.8,1.7-2.9,4.6-2.9v-0.2
		c0-0.6-0.2-1.7-1.7-1.7c-0.7,0-1.4,0.2-2,0.6l-0.3-1c0.6-0.4,1.6-0.7,2.5-0.7c2.4,0,2.9,1.6,2.9,3.2v2.9c0,0.6,0,1.3,0.2,1.8
		L373.1,591.9L373.1,591.9z M372.9,588c-1.5,0-3.2,0.2-3.2,1.7c0,0.9,0.6,1.3,1.3,1.3c1,0,1.7-0.6,1.8-1.3c0.1-0.2,0.1-0.3,0.1-0.5
		V588z"/>
	<path fill="#CCCCCC" d="M381.9,591.6c-0.4,0.2-1.2,0.5-2.2,0.5c-2.3,0-3.8-1.6-3.8-3.9c0-2.4,1.6-4,4.1-4c0.8,0,1.6,0.2,1.9,0.4
		l-0.3,1.1c-0.3-0.2-0.9-0.4-1.6-0.4c-1.7,0-2.7,1.3-2.7,2.9c0,1.7,1.1,2.9,2.7,2.9c0.8,0,1.3-0.2,1.7-0.4L381.9,591.6z"/>
	<path fill="#CCCCCC" d="M384.9,587.8L384.9,587.8c0.2-0.2,0.5-0.6,0.7-0.9l2.2-2.6h1.7l-2.9,3.2l3.4,4.5h-1.7l-2.6-3.6l-0.7,0.8
		v2.9h-1.3v-11.2h1.3L384.9,587.8L384.9,587.8z"/>
</g>
<g>
	<path fill="#CCCCCC" d="M141.5,700.6h-3.2v-1.2h7.9v1.2h-3.2v9.5h-1.4V700.6z"/>
	<path fill="#CCCCCC" d="M153.2,706.3c0,2.9-2,4-3.8,4c-2.1,0-3.6-1.5-3.6-4c0-2.5,1.7-4,3.8-4S153.2,703.9,153.2,706.3z
		 M147.1,706.3c0,1.7,1,2.9,2.3,2.9c1.3,0,2.3-1.3,2.3-3c0-1.3-0.6-2.9-2.3-2.9C147.8,703.3,147.1,704.8,147.1,706.3z"/>
	<path fill="#CCCCCC" d="M161.3,708.1c0,0.8,0,1.5,0.1,2.1h-1.3l-0.1-1.3l0,0c-0.4,0.6-1.2,1.4-2.5,1.4c-1.2,0-2.6-0.6-2.6-3.3v-4.5
		h1.4v4.3c0,1.4,0.5,2.5,1.7,2.5c1,0,1.6-0.6,1.8-1.3c0.1-0.2,0.2-0.5,0.2-0.7v-4.7h1.4v5.5H161.3z"/>
	<path fill="#CCCCCC" d="M169.1,709.8c-0.4,0.2-1.2,0.5-2.2,0.5c-2.3,0-3.8-1.6-3.8-3.9c0-2.4,1.6-4,4.1-4c0.8,0,1.6,0.2,1.9,0.4
		l-0.3,1.1c-0.3-0.2-0.9-0.4-1.6-0.4c-1.7,0-2.7,1.3-2.7,2.9c0,1.7,1.1,2.9,2.7,2.9c0.8,0,1.3-0.2,1.7-0.4L169.1,709.8z"/>
	<path fill="#CCCCCC" d="M170.7,698.9h1.4v4.8l0,0c0.2-0.4,0.6-0.7,1-1c0.4-0.2,0.9-0.4,1.4-0.4c1,0,2.7,0.6,2.7,3.2v4.6h-1.4v-4.4
		c0-1.3-0.5-2.3-1.7-2.3c-0.9,0-1.6,0.6-1.9,1.4c-0.1,0.2-0.1,0.4-0.1,0.6v4.6h-1.4V698.9z"/>
	<path fill="#CCCCCC" d="M181.1,700.3c0,0.5-0.3,0.9-0.9,0.9c-0.5,0-0.9-0.4-0.9-0.9c0-0.5,0.4-0.9,0.9-0.9S181.1,699.8,181.1,700.3
		z M179.5,710.1v-7.7h1.4v7.7H179.5z"/>
	<path fill="#CCCCCC" d="M183.3,704.5c0-0.8,0-1.4-0.1-2.1h1.3l0.1,1.3l0,0c0.4-0.7,1.3-1.4,2.5-1.4c1,0,2.7,0.6,2.7,3.2v4.6h-1.4
		v-4.4c0-1.3-0.5-2.3-1.7-2.3c-1,0-1.7,0.6-1.9,1.4c-0.1,0.2-0.1,0.4-0.1,0.6v4.6h-1.4L183.3,704.5L183.3,704.5z"/>
	<path fill="#CCCCCC" d="M198.6,702.5c0,0.6-0.1,1.2-0.1,2.1v4.4c0,1.7-0.3,2.9-1.1,3.5c-0.7,0.7-1.8,1-2.8,1c-1,0-1.9-0.2-2.5-0.6
		l0.3-1c0.5,0.3,1.3,0.6,2.2,0.6c1.4,0,2.5-0.7,2.5-2.7v-0.9l0,0c-0.4,0.7-1.3,1.3-2.5,1.3c-1.9,0-3.2-1.6-3.2-3.7
		c0-2.6,1.7-4,3.5-4c1.3,0,2.1,0.7,2.4,1.3l0,0l0.1-1.2L198.6,702.5L198.6,702.5z M197.2,705.5c0-0.2,0-0.5-0.1-0.6
		c-0.2-0.8-1-1.5-2-1.5c-1.3,0-2.3,1.1-2.3,2.9c0,1.5,0.8,2.8,2.3,2.8c0.9,0,1.7-0.6,1.9-1.4c0.1-0.2,0.1-0.5,0.1-0.7L197.2,705.5
		L197.2,705.5z"/>
	<path fill="#CCCCCC" d="M205.9,700.2v2.2h2v1h-2v4.1c0,1,0.2,1.5,1,1.5c0.4,0,0.6-0.1,0.8-0.1l0.1,1c-0.2,0.1-0.7,0.2-1.3,0.2
		c-0.6,0-1.2-0.2-1.5-0.6c-0.4-0.4-0.6-1.1-0.6-2v-4.2h-1.2v-1h1.2v-1.8L205.9,700.2z"/>
	<path fill="#CCCCCC" d="M209.5,698.9h1.4v4.8l0,0c0.2-0.4,0.6-0.7,1-1c0.4-0.2,0.9-0.4,1.4-0.4c1,0,2.7,0.6,2.7,3.2v4.6h-1.4v-4.4
		c0-1.3-0.5-2.3-1.7-2.3c-0.9,0-1.6,0.6-1.9,1.4c-0.1,0.2-0.1,0.4-0.1,0.6v4.6h-1.4L209.5,698.9L209.5,698.9z"/>
	<path fill="#CCCCCC" d="M219.1,706.6c0,1.9,1.3,2.7,2.6,2.7c1,0,1.6-0.2,2.1-0.4l0.2,1c-0.5,0.2-1.3,0.5-2.5,0.5
		c-2.4,0-3.8-1.6-3.8-3.9c0-2.3,1.3-4.1,3.6-4.1c2.5,0,3.2,2.2,3.2,3.6c0,0.3,0,0.5-0.1,0.6L219.1,706.6L219.1,706.6z M223.1,705.5
		c0-0.9-0.4-2.3-1.9-2.3c-1.4,0-2.1,1.3-2.1,2.3H223.1z"/>
	<path fill="#CCCCCC" d="M229.6,704.8c0-0.9,0-1.7-0.1-2.4h1.2l0.1,1.5h0.1c0.3-1,1.2-1.7,2.1-1.7c0.2,0,0.2,0,0.4,0.1v1.3
		c-0.2,0-0.3-0.1-0.5-0.1c-1,0-1.7,0.7-1.9,1.8c0,0.2-0.1,0.4-0.1,0.6v4.1h-1.3V704.8z"/>
	<path fill="#CCCCCC" d="M236.3,700.3c0,0.5-0.3,0.9-0.9,0.9c-0.5,0-0.9-0.4-0.9-0.9c0-0.5,0.4-0.9,0.9-0.9
		C236,699.4,236.3,699.8,236.3,700.3z M234.8,710.1v-7.7h1.4v7.7H234.8z"/>
	<path fill="#CCCCCC" d="M245.1,702.5c0,0.6-0.1,1.2-0.1,2.1v4.4c0,1.7-0.3,2.9-1.1,3.5c-0.7,0.7-1.8,1-2.8,1s-1.9-0.2-2.5-0.6
		l0.3-1c0.5,0.3,1.3,0.6,2.2,0.6c1.4,0,2.5-0.7,2.5-2.7v-0.9l0,0c-0.4,0.7-1.3,1.3-2.5,1.3c-1.9,0-3.2-1.6-3.2-3.7
		c0-2.6,1.7-4,3.5-4c1.3,0,2.1,0.7,2.4,1.3l0,0l0.1-1.2L245.1,702.5L245.1,702.5z M243.7,705.5c0-0.2,0-0.5-0.1-0.6
		c-0.2-0.8-1-1.5-2-1.5c-1.3,0-2.3,1.1-2.3,2.9c0,1.5,0.8,2.8,2.3,2.8c0.9,0,1.7-0.6,1.9-1.4c0.1-0.2,0.1-0.5,0.1-0.7L243.7,705.5
		L243.7,705.5z"/>
	<path fill="#CCCCCC" d="M247.3,698.9h1.4v4.8l0,0c0.2-0.4,0.6-0.7,1-1c0.4-0.2,0.9-0.4,1.4-0.4c1,0,2.7,0.6,2.7,3.2v4.6h-1.4v-4.4
		c0-1.3-0.5-2.3-1.7-2.3c-0.9,0-1.6,0.6-1.9,1.4c-0.1,0.2-0.1,0.4-0.1,0.6v4.6h-1.4L247.3,698.9L247.3,698.9z"/>
	<path fill="#CCCCCC" d="M257.8,700.2v2.2h2v1h-2v4.1c0,1,0.2,1.5,1,1.5c0.4,0,0.6-0.1,0.8-0.1l0.1,1c-0.2,0.1-0.7,0.2-1.3,0.2
		c-0.6,0-1.2-0.2-1.5-0.6c-0.4-0.4-0.6-1.1-0.6-2v-4.2h-1.2v-1h1.2v-1.8L257.8,700.2z"/>
	<path fill="#CCCCCC" d="M264.5,708.7c0.4,0.2,1.1,0.6,1.8,0.6c1,0,1.5-0.5,1.5-1.1c0-0.6-0.4-1-1.4-1.4c-1.3-0.5-2.1-1.3-2.1-2.1
		c0-1.3,1-2.2,2.6-2.2c0.8,0,1.4,0.2,1.9,0.5l-0.3,1c-0.3-0.2-0.9-0.5-1.6-0.5c-0.8,0-1.3,0.5-1.3,1c0,0.6,0.5,1,1.4,1.3
		c1.3,0.5,2,1.2,2,2.3c0,1.3-1,2.3-2.9,2.3c-0.9,0-1.6-0.2-2.1-0.6L264.5,708.7z"/>
	<path fill="#CCCCCC" d="M272.5,700.3c0,0.5-0.3,0.9-0.9,0.9c-0.5,0-0.9-0.4-0.9-0.9c0-0.5,0.4-0.9,0.9-0.9
		C272.2,699.4,272.5,699.8,272.5,700.3z M270.9,710.1v-7.7h1.4v7.7H270.9z"/>
	<path fill="#CCCCCC" d="M281.3,698.9v9.3c0,0.7,0,1.4,0.1,2h-1.3l-0.1-1.3l0,0c-0.4,0.9-1.3,1.5-2.6,1.5c-1.8,0-3.2-1.6-3.2-3.9
		c0-2.5,1.6-4.1,3.4-4.1c1.2,0,2,0.6,2.3,1.2l0,0v-4.6H281.3z M279.9,705.6c0-0.2,0-0.4-0.1-0.6c-0.2-0.9-1-1.6-2-1.6
		c-1.4,0-2.3,1.3-2.3,2.9c0,1.6,0.8,2.9,2.3,2.9c1,0,1.8-0.6,2.1-1.7c0.1-0.2,0.1-0.4,0.1-0.6L279.9,705.6L279.9,705.6z"/>
	<path fill="#CCCCCC" d="M284.4,706.6c0,1.9,1.3,2.7,2.6,2.7c1,0,1.6-0.2,2.1-0.4l0.2,1c-0.5,0.2-1.3,0.5-2.5,0.5
		c-2.4,0-3.8-1.6-3.8-3.9c0-2.3,1.3-4.1,3.6-4.1c2.5,0,3.2,2.2,3.2,3.6c0,0.3,0,0.5-0.1,0.6L284.4,706.6L284.4,706.6z M288.4,705.5
		c0-0.9-0.4-2.3-1.9-2.3c-1.4,0-2.1,1.3-2.1,2.3H288.4z"/>
	<path fill="#CCCCCC" d="M301.8,706.3c0,2.9-2,4-3.8,4c-2.1,0-3.6-1.5-3.6-4c0-2.5,1.7-4,3.8-4C300.3,702.3,301.8,703.9,301.8,706.3
		z M295.7,706.3c0,1.7,1,2.9,2.3,2.9c1.3,0,2.3-1.3,2.3-3c0-1.3-0.6-2.9-2.3-2.9C296.4,703.3,295.7,704.8,295.7,706.3z"/>
	<path fill="#CCCCCC" d="M303.7,710.1v-6.6h-1.1v-1h1.1v-0.4c0-1.1,0.2-2.1,0.9-2.7c0.6-0.5,1.2-0.7,1.9-0.7c0.5,0,1,0.1,1.2,0.2
		l-0.2,1.1c-0.2-0.1-0.5-0.2-0.9-0.2c-1.2,0-1.5,1-1.5,2.2v0.4h1.8v1h-1.8v6.6H303.7L303.7,710.1z"/>
	<path fill="#CCCCCC" d="M313.2,700.2v2.2h2v1h-2v4.1c0,1,0.2,1.5,1,1.5c0.4,0,0.6-0.1,0.8-0.1l0.1,1c-0.2,0.1-0.7,0.2-1.3,0.2
		c-0.6,0-1.2-0.2-1.5-0.6c-0.4-0.4-0.6-1.1-0.6-2v-4.2h-1.2v-1h1.2v-1.8L313.2,700.2z"/>
	<path fill="#CCCCCC" d="M316.8,698.9h1.4v4.8l0,0c0.2-0.4,0.6-0.7,1-1c0.4-0.2,0.9-0.4,1.4-0.4c1,0,2.7,0.6,2.7,3.2v4.6h-1.4v-4.4
		c0-1.3-0.5-2.3-1.7-2.3c-0.9,0-1.6,0.6-1.9,1.4c-0.1,0.2-0.1,0.4-0.1,0.6v4.6h-1.4L316.8,698.9L316.8,698.9z"/>
	<path fill="#CCCCCC" d="M326.4,706.6c0,1.9,1.3,2.7,2.6,2.7c1,0,1.6-0.2,2.1-0.4l0.2,1c-0.5,0.2-1.3,0.5-2.5,0.5
		c-2.4,0-3.8-1.6-3.8-3.9c0-2.3,1.3-4.1,3.6-4.1c2.5,0,3.2,2.2,3.2,3.6c0,0.3,0,0.5-0.1,0.6L326.4,706.6L326.4,706.6z M330.5,705.5
		c0-0.9-0.4-2.3-1.9-2.3c-1.4,0-2.1,1.3-2.1,2.3H330.5z"/>
	<path fill="#CCCCCC" d="M336.7,708.7c0.4,0.2,1.1,0.6,1.8,0.6c1,0,1.5-0.5,1.5-1.1c0-0.6-0.4-1-1.4-1.4c-1.3-0.5-2.1-1.3-2.1-2.1
		c0-1.3,1-2.2,2.6-2.2c0.8,0,1.4,0.2,1.9,0.5l-0.3,1c-0.3-0.2-0.9-0.5-1.6-0.5c-0.8,0-1.3,0.5-1.3,1c0,0.6,0.5,1,1.4,1.3
		c1.3,0.5,2,1.2,2,2.3c0,1.3-1,2.3-2.9,2.3c-0.9,0-1.6-0.2-2.1-0.6L336.7,708.7z"/>
	<path fill="#CCCCCC" d="M348.6,709.8c-0.4,0.2-1.2,0.5-2.2,0.5c-2.3,0-3.8-1.6-3.8-3.9c0-2.4,1.6-4,4.1-4c0.8,0,1.6,0.2,1.9,0.4
		l-0.3,1.1c-0.3-0.2-0.9-0.4-1.6-0.4c-1.7,0-2.7,1.3-2.7,2.9c0,1.7,1.1,2.9,2.7,2.9c0.8,0,1.3-0.2,1.7-0.4L348.6,709.8z"/>
	<path fill="#CCCCCC" d="M350.3,704.8c0-0.9,0-1.7-0.1-2.4h1.2l0.1,1.5h0.1c0.3-1,1.2-1.7,2.1-1.7c0.2,0,0.2,0,0.4,0.1v1.3
		c-0.2,0-0.3-0.1-0.5-0.1c-1,0-1.7,0.7-1.9,1.8c0,0.2-0.1,0.4-0.1,0.6v4.1h-1.3V704.8z"/>
	<path fill="#CCCCCC" d="M356.1,706.6c0,1.9,1.3,2.7,2.6,2.7c1,0,1.6-0.2,2.1-0.4l0.2,1c-0.5,0.2-1.3,0.5-2.5,0.5
		c-2.4,0-3.8-1.6-3.8-3.9c0-2.3,1.3-4.1,3.6-4.1c2.5,0,3.2,2.2,3.2,3.6c0,0.3,0,0.5-0.1,0.6L356.1,706.6L356.1,706.6z M360.2,705.5
		c0-0.9-0.4-2.3-1.9-2.3c-1.4,0-2.1,1.3-2.1,2.3H360.2z"/>
	<path fill="#CCCCCC" d="M364,706.6c0,1.9,1.3,2.7,2.6,2.7c1,0,1.6-0.2,2.1-0.4l0.2,1c-0.5,0.2-1.3,0.5-2.5,0.5
		c-2.4,0-3.8-1.6-3.8-3.9c0-2.3,1.3-4.1,3.6-4.1c2.5,0,3.2,2.2,3.2,3.6c0,0.3,0,0.5-0.1,0.6L364,706.6L364,706.6z M368.1,705.5
		c0-0.9-0.4-2.3-1.9-2.3c-1.4,0-2.1,1.3-2.1,2.3H368.1z"/>
	<path fill="#CCCCCC" d="M371.2,704.5c0-0.8,0-1.4-0.1-2.1h1.3l0.1,1.3l0,0c0.4-0.7,1.3-1.4,2.5-1.4c1,0,2.7,0.6,2.7,3.2v4.6h-1.4
		v-4.4c0-1.3-0.5-2.3-1.7-2.3c-1,0-1.7,0.6-1.9,1.4c-0.1,0.2-0.1,0.4-0.1,0.6v4.6h-1.4L371.2,704.5L371.2,704.5z"/>
	<path fill="#CCCCCC" d="M385,700.2v2.2h2v1h-2v4.1c0,1,0.2,1.5,1,1.5c0.4,0,0.6-0.1,0.8-0.1l0.1,1c-0.2,0.1-0.7,0.2-1.3,0.2
		c-0.6,0-1.2-0.2-1.5-0.6c-0.4-0.4-0.6-1.1-0.6-2v-4.2h-1.2v-1h1.2v-1.8L385,700.2z"/>
	<path fill="#CCCCCC" d="M395.4,706.3c0,2.9-2,4-3.8,4c-2.1,0-3.6-1.5-3.6-4c0-2.5,1.7-4,3.8-4C393.9,702.3,395.4,703.9,395.4,706.3
		z M389.3,706.3c0,1.7,1,2.9,2.3,2.9s2.3-1.3,2.3-3c0-1.3-0.6-2.9-2.3-2.9S389.3,704.8,389.3,706.3z"/>
	<path fill="#CCCCCC" d="M407.2,702.5c0,0.6-0.1,1.2-0.1,2.1v4.4c0,1.7-0.3,2.9-1.1,3.5c-0.7,0.7-1.8,1-2.8,1c-1,0-1.9-0.2-2.5-0.6
		l0.3-1c0.5,0.3,1.3,0.6,2.2,0.6c1.4,0,2.5-0.7,2.5-2.7v-0.9l0,0c-0.4,0.7-1.3,1.3-2.5,1.3c-1.9,0-3.2-1.6-3.2-3.7
		c0-2.6,1.7-4,3.5-4c1.3,0,2.1,0.7,2.4,1.3l0,0l0.1-1.2L407.2,702.5L407.2,702.5z M405.7,705.5c0-0.2,0-0.5-0.1-0.6
		c-0.2-0.8-1-1.5-2-1.5c-1.3,0-2.3,1.1-2.3,2.9c0,1.5,0.8,2.8,2.3,2.8c0.9,0,1.7-0.6,1.9-1.4c0.1-0.2,0.1-0.5,0.1-0.7L405.7,705.5
		L405.7,705.5z"/>
	<path fill="#CCCCCC" d="M416.3,706.3c0,2.9-2,4-3.8,4c-2.1,0-3.6-1.5-3.6-4c0-2.5,1.7-4,3.8-4S416.3,703.9,416.3,706.3z
		 M410.2,706.3c0,1.7,1,2.9,2.3,2.9s2.3-1.3,2.3-3c0-1.3-0.6-2.9-2.3-2.9S410.2,704.8,410.2,706.3z"/>
	<path fill="#CCCCCC" d="M421.6,710.1v-6.6h-1.1v-1h1.1v-0.4c0-1.1,0.2-2.1,0.9-2.7c0.6-0.5,1.2-0.7,1.9-0.7c0.5,0,1,0.1,1.2,0.2
		l-0.2,1.1c-0.2-0.1-0.5-0.2-0.9-0.2c-1.2,0-1.5,1-1.5,2.2v0.4h1.8v1H423v6.6H421.6L421.6,710.1z"/>
	<path fill="#CCCCCC" d="M432.8,706.3c0,2.9-2,4-3.8,4c-2.1,0-3.6-1.5-3.6-4c0-2.5,1.7-4,3.8-4C431.3,702.3,432.8,703.9,432.8,706.3
		z M426.7,706.3c0,1.7,1,2.9,2.3,2.9s2.3-1.3,2.3-3c0-1.3-0.6-2.9-2.3-2.9S426.7,704.8,426.7,706.3z"/>
	<path fill="#CCCCCC" d="M434.6,704.8c0-0.9,0-1.7-0.1-2.4h1.2l0.1,1.5h0.1c0.3-1,1.2-1.7,2.1-1.7c0.2,0,0.2,0,0.4,0.1v1.3
		c-0.2,0-0.3-0.1-0.5-0.1c-1,0-1.7,0.7-1.9,1.8c0,0.2-0.1,0.4-0.1,0.6v4.1h-1.3V704.8z"/>
	<path fill="#CCCCCC" d="M440.7,702.5l1,3.9c0.2,0.9,0.4,1.7,0.6,2.5h0.1c0.2-0.8,0.4-1.6,0.7-2.5l1.3-3.9h1.2l1.2,3.8
		c0.3,1,0.5,1.7,0.7,2.5h0.1c0.2-0.8,0.3-1.6,0.6-2.5l1.1-3.9h1.3l-2.5,7.7h-1.3l-1.2-3.6c-0.2-0.9-0.5-1.6-0.7-2.5l0,0
		c-0.2,1-0.4,1.7-0.7,2.5l-1.3,3.6h-1.3l-2.3-7.7H440.7z"/>
	<path fill="#CCCCCC" d="M455.9,710.1l-0.1-1h-0.1c-0.4,0.6-1.3,1.1-2.4,1.1c-1.6,0-2.4-1.1-2.4-2.2c0-1.8,1.7-2.9,4.6-2.9v-0.2
		c0-0.6-0.2-1.7-1.7-1.7c-0.7,0-1.4,0.2-2,0.6l-0.3-1c0.6-0.4,1.6-0.7,2.5-0.7c2.4,0,2.9,1.6,2.9,3.2v2.9c0,0.6,0,1.3,0.2,1.8
		L455.9,710.1L455.9,710.1z M455.8,706.3c-1.5,0-3.2,0.2-3.2,1.7c0,0.9,0.6,1.3,1.3,1.3c1,0,1.7-0.6,1.8-1.3
		c0.1-0.2,0.1-0.3,0.1-0.5V706.3z"/>
	<path fill="#CCCCCC" d="M459.4,704.8c0-0.9,0-1.7-0.1-2.4h1.2l0.1,1.5h0.1c0.3-1,1.2-1.7,2.1-1.7c0.2,0,0.2,0,0.4,0.1v1.3
		c-0.2,0-0.3-0.1-0.5-0.1c-1,0-1.7,0.7-1.9,1.8c0,0.2-0.1,0.4-0.1,0.6v4.1h-1.3V704.8z"/>
	<path fill="#CCCCCC" d="M471,698.9v9.3c0,0.7,0,1.4,0.1,2h-1.3l-0.1-1.3l0,0c-0.4,0.9-1.3,1.5-2.6,1.5c-1.8,0-3.2-1.6-3.2-3.9
		c0-2.5,1.6-4.1,3.4-4.1c1.2,0,2,0.6,2.3,1.2l0,0v-4.6H471z M469.6,705.6c0-0.2,0-0.4-0.1-0.6c-0.2-0.9-1-1.6-2-1.6
		c-1.4,0-2.3,1.3-2.3,2.9c0,1.6,0.8,2.9,2.3,2.9c1,0,1.8-0.6,2.1-1.7c0.1-0.2,0.1-0.4,0.1-0.6L469.6,705.6L469.6,705.6z"/>
</g>
</svg>
